<?xml version="1.0" encoding="UTF-8"?>
<svg version="1.1" xmlns="http://www.w3.org/2000/svg" width="478" height="478">
<path d="M0,0 L10,1 L23,4 L21,108 L32,100 L50,88 L62,80 L69,81 L103,90 L103,102 L101,131 L100,134 L143,117 L177,104 L213,90 L216,90 L218,97 L222,99 L227,115 L227,120 L203,133 L181,145 L152,161 L137,169 L156,178 L172,186 L183,191 L193,228 L192,233 L173,242 L157,250 L155,250 L160,255 L177,269 L183,273 L183,275 L187,277 L201,288 L214,299 L227,309 L244,323 L249,327 L248,331 L246,333 L244,340 L240,345 L235,350 L232,353 L227,352 L216,345 L194,332 L176,321 L163,313 L143,301 L143,312 L145,340 L145,352 L118,379 L113,379 L103,372 L80,357 L62,472 L61,477 L52,476 L52,478 L42,477 L29,474 L31,374 L32,370 L8,386 L-4,394 L-10,398 L-18,397 L-51,388 L-51,377 L-49,348 L-48,344 L-68,352 L-112,369 L-161,388 L-164,388 L-166,381 L-170,379 L-175,363 L-175,358 L-151,345 L-122,329 L-96,315 L-85,309 L-108,298 L-129,288 L-132,283 L-141,250 L-140,245 L-116,233 L-105,228 L-103,228 L-108,223 L-125,209 L-139,198 L-150,189 L-153,187 L-153,185 L-156,185 L-155,187 L-158,186 L-160,181 L-170,173 L-176,169 L-178,170 L-178,173 L-181,173 L-182,175 L-186,174 L-186,170 L-184,170 L-184,172 L-182,172 L-183,167 L-183,164 L-186,163 L-187,159 L-197,151 L-196,147 L-194,145 L-192,138 L-180,125 L-176,126 L-160,135 L-147,143 L-124,157 L-116,161 L-113,164 L-91,177 L-91,166 L-93,137 L-93,126 L-66,99 L-61,99 L-36,116 L-28,121 L-10,6 L-9,1 L-1,1 Z M-3,124 Z M-15,131 Z M-18,134 L-17,136 Z M70,145 Z M53,146 Z M96,149 L99,151 L99,149 Z M-27,150 Z M80,152 Z M109,156 Z M87,157 Z M111,157 Z M-37,161 Z M-39,165 Z M-181,166 Z M-180,167 Z M-181,168 L-180,170 Z M-41,168 Z M-185,172 Z M-90,180 L-90,187 L-89,187 L-89,180 Z M3,183 Z M1,184 Z M0,186 Z M-1,187 Z M42,187 L42,190 L49,191 L62,191 L62,190 L45,189 L45,187 Z M-2,189 Z M-3,190 Z M-4,192 Z M63,192 Z M-5,193 Z M34,193 Z M32,194 Z M-89,195 L-89,201 L-88,201 L-88,195 Z M-6,195 Z M30,195 Z M-7,196 Z M29,196 Z M-10,197 L-10,217 L-9,217 L-8,200 L-7,197 Z M27,197 Z M20,201 Z M18,202 Z M17,203 Z M15,204 Z M13,205 Z M-88,206 L-87,208 Z M45,210 Z M48,211 Z M50,212 Z M51,213 Z M-88,215 L-87,217 Z M57,216 Z M58,217 L62,219 L62,217 Z M-88,220 Z M-10,220 L-10,236 L-8,234 L-8,225 L-9,220 Z M65,221 Z M-87,222 L-86,225 Z M71,224 Z M-84,225 Z M72,225 Z M74,226 Z M76,227 L78,232 L80,229 L80,227 Z M-44,228 Z M-33,229 Z M-34,230 L-33,233 Z M-76,231 L-75,233 Z M79,232 L80,234 Z M-33,234 L-32,236 Z M80,234 L81,236 Z M129,234 L130,236 Z M-32,236 L-31,238 Z M81,236 L82,238 Z M-77,237 L-76,239 Z M19,237 Z M-31,238 L-30,240 Z M82,239 Z M128,239 L129,241 Z M-30,240 L-29,242 Z M83,240 L84,242 Z M-29,242 L-28,244 Z M84,242 L85,244 Z M-78,243 L-77,246 Z M-28,244 L-27,246 Z M60,245 L60,248 L62,248 L62,245 Z M85,245 Z M127,245 L128,247 Z M-27,246 L-27,251 L-24,250 Z M110,250 Z M-23,251 Z M126,251 Z M-20,253 Z M61,253 L62,255 Z M138,253 L139,255 Z M-18,254 Z M-16,255 Z M-15,256 Z M-13,257 Z M139,257 L139,263 L140,263 L140,257 Z M-11,258 Z M-70,259 Z M-9,259 L-8,261 Z M61,260 L62,263 Z M-48,263 Z M-2,263 Z M-3,264 Z M0,264 Z M1,265 Z M3,266 Z M5,267 Z M61,267 L60,278 L59,281 L62,281 L62,267 Z M139,270 L140,272 Z M39,271 Z M38,272 Z M33,275 Z M29,277 Z M140,277 L140,284 L141,284 L141,277 Z M27,278 L26,280 L28,280 Z M24,280 Z M22,281 Z M58,281 Z M57,282 Z M15,285 Z M13,286 Z M-10,287 L-10,288 L-2,289 L7,289 L7,291 L10,291 L11,288 L2,287 Z M12,287 Z M53,288 Z M52,290 Z M51,291 Z M141,291 L141,298 L142,298 L142,291 Z M50,293 Z M47,294 Z M-35,319 L-36,321 L-34,321 Z M-61,320 Z M-59,321 Z M81,326 Z M70,330 Z M-3,331 Z M-20,332 Z M65,332 Z M66,346 Z M54,353 Z " fill="#F1F4F5" transform="translate(213,0)"/>
<path d="M0,0 L5,0 L30,17 L33,19 L33,23 L39,24 L50,32 L50,34 L48,34 L51,43 L50,47 L36,52 L33,53 L31,58 L25,71 L35,90 L37,93 L43,95 L44,98 L42,100 L31,101 L29,102 L0,105 L48,101 L55,101 L55,119 L49,121 L35,130 L32,133 L32,137 L34,137 L37,143 L37,150 L32,150 L26,161 L24,163 L-1,163 L-2,160 L-4,160 L-2,163 L24,165 L26,169 L28,172 L27,177 L24,184 L26,184 L27,178 L36,158 L38,158 L38,155 L44,154 L53,159 L54,178 L50,189 L46,198 L32,218 L31,221 L27,223 L28,225 L29,223 L34,224 L45,233 L66,234 L68,230 L70,230 L71,224 L75,221 L78,222 L77,217 L79,214 L81,215 L82,213 L85,214 L87,212 L92,215 L96,220 L95,215 L90,212 L84,203 L83,198 L80,194 L81,188 L88,184 L92,185 L94,187 L100,188 L112,194 L128,227 L135,242 L134,246 L136,245 L134,239 L133,233 L150,227 L159,210 L151,194 L148,187 L168,189 L206,189 L207,193 L208,212 L209,213 L211,241 L211,253 L184,280 L179,280 L169,273 L146,258 L128,373 L127,378 L118,377 L118,379 L108,378 L95,375 L97,275 L98,271 L74,287 L62,295 L56,299 L48,298 L15,289 L15,278 L17,249 L18,245 L-2,253 L-46,270 L-95,289 L-98,289 L-100,282 L-104,280 L-109,264 L-109,259 L-85,246 L-56,230 L-30,216 L-19,210 L-42,199 L-63,189 L-66,184 L-75,151 L-74,146 L-50,134 L-39,129 L-37,129 L-42,124 L-59,110 L-73,99 L-84,90 L-87,88 L-87,86 L-90,86 L-89,88 L-92,87 L-94,82 L-104,74 L-110,70 L-112,71 L-112,74 L-115,74 L-116,76 L-120,75 L-120,71 L-118,71 L-118,73 L-116,73 L-117,68 L-117,65 L-120,64 L-121,60 L-131,52 L-130,48 L-128,46 L-126,39 L-114,26 L-110,27 L-94,36 L-81,44 L-58,58 L-50,62 L-47,65 L-25,78 L-25,67 L-27,38 L-27,27 Z M-115,67 Z M-114,68 Z M-115,69 L-114,71 Z M-119,73 Z M-24,81 L-24,88 L-23,88 L-23,81 Z M-23,96 L-23,102 L-22,102 L-22,96 Z M-22,107 L-21,109 Z M-22,116 L-21,118 Z M-22,121 Z M-21,123 L-20,126 Z M-18,126 Z M22,129 Z M-10,132 L-9,134 Z M-11,138 L-10,140 Z M-12,144 L-11,147 Z M5,221 Z M7,222 Z M120,254 Z " fill="#FBFBFB" transform="translate(147,99)"/>
<path d="M0,0 L7,1 L41,10 L41,22 L39,51 L38,54 L81,37 L115,24 L151,10 L154,10 L156,17 L160,19 L165,35 L165,40 L141,53 L119,65 L90,81 L77,88 L71,87 L55,79 L47,76 L48,80 L44,84 L45,87 L49,79 L55,80 L60,83 L63,89 L65,90 L64,95 L58,106 L49,121 L40,134 L32,135 L20,147 L19,145 L20,141 L16,141 L14,143 L10,142 L11,136 L14,127 L7,141 L2,139 L0,137 L2,134 L1,109 L-8,109 L-17,108 L-22,89 L-20,98 L-19,106 L-24,101 L-40,78 L-44,72 L-44,67 L-49,65 L-50,60 L-55,57 L-63,45 L-58,40 L-43,30 L-38,27 L-33,22 L-12,8 Z M-49,61 Z M8,65 Z M-9,66 Z M34,69 L37,71 L37,69 Z M18,72 Z M25,77 Z M60,87 L59,89 L61,89 Z " fill="#FAFAFA" transform="translate(275,80)"/>
<path d="M0,0 L7,0 L26,9 L42,17 L53,22 L63,59 L62,64 L43,73 L27,81 L25,81 L30,86 L47,100 L53,104 L53,106 L57,108 L71,119 L84,130 L97,140 L114,154 L119,158 L118,162 L116,164 L114,171 L110,176 L105,181 L102,184 L97,183 L86,176 L64,163 L46,152 L33,144 L15,133 L14,121 L12,121 L10,98 L10,93 L8,103 L-56,109 L-67,109 L-67,90 L-61,89 L-49,81 L-20,81 L-44,79 L-44,73 L-46,73 L-48,64 L-45,56 L-36,47 L-30,47 L-34,54 L-29,49 L-27,47 L-11,47 L-1,62 L0,65 L-1,61 L-10,47 L-25,46 L-23,42 L-12,24 L-4,8 L-2,3 L0,3 Z M-2,70 L-1,72 Z M-3,76 L-2,78 Z M-4,82 Z M8,84 L9,86 Z " fill="#FCFDFD" transform="translate(343,169)"/>
<path d="M0,0 L5,0 L30,17 L33,19 L33,23 L39,24 L50,32 L50,34 L48,34 L51,43 L50,47 L36,52 L33,53 L31,58 L25,71 L35,90 L37,93 L43,95 L44,98 L42,100 L31,101 L29,102 L0,105 L38,102 L50,102 L49,110 L27,114 L9,119 L-7,124 L-8,126 L-16,126 L-20,124 L-20,113 L-19,110 L-15,107 L-21,106 L-21,94 L-19,95 L-18,89 L-20,87 L-22,91 L-25,67 L-27,38 L-27,27 Z " fill="#FDFDFD" transform="translate(147,99)"/>
<path d="M0,0 L7,1 L41,10 L41,22 L39,51 L36,58 L36,68 L31,68 L29,73 L26,77 L22,75 L11,66 L-10,65 L-10,67 L-13,67 L-13,72 L-22,86 L-21,94 L-19,101 L-19,106 L-24,101 L-40,78 L-44,72 L-44,67 L-49,65 L-50,60 L-55,57 L-63,45 L-58,40 L-43,30 L-38,27 L-33,22 L-12,8 Z M-49,61 Z " fill="#FDFDFD" transform="translate(275,80)"/>
<path d="M0,0 L4,1 L20,10 L33,18 L56,32 L64,36 L67,39 L89,52 L90,47 L91,47 L91,57 L93,61 L96,61 L97,64 L96,71 L94,69 L93,80 L102,80 L97,84 L95,84 L94,97 L89,98 L79,103 L77,103 L72,98 L55,84 L41,73 L30,64 L27,62 L27,60 L24,60 L25,62 L22,61 L20,56 L10,48 L4,44 L2,45 L2,48 L-1,48 L-2,50 L-6,49 L-6,45 L-4,45 L-4,47 L-2,47 L-3,42 L-3,39 L-6,38 L-7,34 L-17,26 L-16,22 L-14,20 L-12,13 Z M-1,41 Z M0,42 Z M-1,43 L0,45 Z M-5,47 Z M91,70 L91,76 L92,76 L92,70 Z M92,81 L93,83 Z M92,90 L93,92 Z M92,95 Z " fill="#FAFAFA" transform="translate(33,125)"/>
<path d="M0,0 L20,2 L58,2 L59,6 L60,25 L61,26 L63,54 L63,66 L36,93 L31,93 L21,86 L0,72 L-4,68 L-15,61 L-12,58 L-14,52 L-15,46 L2,40 L11,23 L3,7 Z " fill="#FCFCFC" transform="translate(295,286)"/>
<path d="M0,0 L5,2 L20,9 L24,10 L26,4 L28,2 L27,7 L25,11 L29,13 L29,15 L41,18 L44,16 L42,21 L36,20 L36,34 L26,39 L-3,50 L-50,68 L-78,79 L-81,79 L-83,72 L-87,70 L-92,54 L-92,49 L-68,36 L-39,20 L-13,6 L-4,1 Z M22,11 Z M24,12 Z " fill="#F9F9F9" transform="translate(130,309)"/>
<path d="M0,0 L2,0 L7,5 L24,19 L30,23 L30,25 L34,27 L48,38 L61,49 L74,59 L91,73 L96,77 L95,81 L93,83 L91,90 L87,95 L82,100 L79,103 L74,102 L63,95 L41,82 L23,71 L10,63 L-8,52 L-9,40 L-11,40 L-13,17 L-13,7 Z " fill="#FBFBFB" transform="translate(366,250)"/>
<path d="M0,0 L10,1 L23,4 L21,101 L20,108 L-3,124 L-5,126 L-10,128 L-14,130 L-16,125 L-22,126 L-24,124 L-25,119 L-24,96 L-10,6 L-9,1 L-1,1 Z M-24,118 Z " fill="#FAFAFA" transform="translate(213,0)"/>
<path d="M0,0 L8,1 L17,8 L26,20 L37,37 L41,42 L41,44 L36,47 L34,47 L34,49 L40,47 L45,44 L58,44 L66,45 L66,62 L64,58 L59,50 L62,59 L61,63 L59,66 L54,64 L49,63 L40,78 L36,76 L33,71 L26,67 L21,63 L21,61 L19,61 L19,59 L24,58 L24,55 L17,58 L15,59 L16,64 L22,76 L19,77 L22,79 L22,81 L19,81 L26,85 L22,86 L7,86 L5,89 L-4,89 L-4,54 L-3,52 L0,50 L2,45 L7,38 L13,40 L20,44 L20,46 L24,45 L10,38 L2,21 L-1,15 L-1,10 L1,10 L-1,7 L-3,3 Z M31,50 Z M24,54 Z " fill="#F9FCFD" transform="translate(209,147)"/>
<path d="M0,0 L1,0 L1,17 L3,23 L10,22 L11,27 L16,24 L21,22 L36,11 L45,6 L50,4 L47,8 L39,12 L28,20 L25,23 L34,36 L38,38 L39,43 L43,45 L45,52 L58,70 L67,83 L66,76 L64,68 L65,63 L66,67 L70,82 L70,85 L67,85 L67,88 L74,88 L74,89 L64,91 L57,95 L55,94 L55,92 L60,89 L62,89 L53,76 L41,58 L35,51 L29,47 L23,45 L22,47 L20,47 L19,49 L20,51 L22,52 L22,57 L20,57 L24,66 L31,81 L31,83 L40,86 L47,90 L47,91 L41,91 L38,88 L30,84 L27,85 L22,94 L22,97 L18,97 L18,95 L1,91 L-7,87 L-17,68 L-9,52 L-5,48 L-1,47 L9,43 L8,38 L7,31 L9,31 L4,26 L-4,21 L-8,20 L-8,17 L-3,19 Z M22,22 Z M10,29 Z M-12,59 Z M-14,63 Z M28,81 Z M26,82 Z M25,84 Z M24,85 Z M23,87 Z M22,88 Z M21,90 Z M20,91 Z M59,91 Z M57,92 Z M19,93 Z M18,94 Z M1,16 Z M38,39 Z " fill="#F6F6F6" transform="translate(188,102)"/>
<path d="M0,0 L7,0 L7,37 L6,39 L12,37 L21,37 L21,35 L76,30 L85,30 L86,21 L88,20 L88,40 L89,40 L90,46 L92,48 L92,59 L90,59 L89,69 L88,69 L88,50 L87,46 L78,47 L49,47 L30,45 L34,53 L33,55 L28,46 L11,41 L6,42 L1,49 L-2,49 L0,43 L-7,36 L-11,32 L-16,32 L-19,35 L-25,38 L-26,35 L-25,32 L-29,17 L-29,6 L-25,9 L-25,1 L-21,6 L-15,7 L-16,3 L-13,2 L0,2 Z M86,28 L87,30 Z M-14,29 Z M-15,30 Z M-20,33 Z M-24,35 Z M5,39 Z M4,40 Z M0,46 Z " fill="#57C8E1" transform="translate(266,242)"/>
<path d="M0,0 L21,0 L45,2 L56,4 L58,10 L58,17 L57,22 L-7,28 L-18,28 L-18,9 L-12,8 Z " fill="#FCFCFC" transform="translate(294,250)"/>
<path d="M0,0 L6,1 L13,5 L14,24 L10,35 L6,44 L-8,64 L-9,67 L-13,69 L-14,73 L-18,75 L-28,71 L-32,67 L-29,58 L-27,58 L-26,52 L-22,46 L-20,46 L-18,42 L-18,35 L-16,30 L-14,30 L-13,24 L-4,4 L-2,4 L-2,1 Z " fill="#FCFCFC" transform="translate(187,253)"/>
<path d="M0,0 L1,2 L-1,1 Z M-12,-11 L-8,-10 L8,-3 L13,0 L13,2 L9,3 L8,5 L6,5 L3,15 L-8,35 L-17,48 L-2,48 L6,59 L9,64 L9,67 L7,67 L2,58 L-3,50 L-19,50 L-24,56 L-26,56 L-24,51 L-23,50 L-28,50 L-37,59 L-40,68 L-38,69 L-38,75 L-36,75 L-35,80 L-12,82 L-12,84 L-41,84 L-53,92 L-60,91 L-59,73 L-81,73 L-79,71 L-78,64 L-81,63 L-80,50 L-76,49 L-76,47 L-74,47 L-74,49 L-69,48 L-62,51 L-57,52 L-53,53 L-46,38 L-45,42 L-49,51 L-48,54 L-45,54 L-43,53 L-40,54 L-40,59 L-28,47 L-20,47 L-18,43 L-7,26 L2,11 L5,3 L2,2 L-1,-4 L-11,-8 L-13,-2 L-16,2 L-17,-4 L-14,-5 Z M-11,-10 Z M-57,54 Z M-51,57 Z M-50,58 Z M-48,59 Z M-46,60 L-44,65 L-42,62 L-42,60 Z M-43,65 L-42,67 Z M-42,67 L-41,69 Z M-41,69 L-40,71 Z M-40,72 Z M-37,78 Z " fill="#F7F8F9" transform="translate(335,167)"/>
<path d="M0,0 L21,0 L29,7 L36,13 L31,24 L29,24 L29,32 L26,32 L24,36 L21,36 L13,48 L11,47 L11,44 L2,44 L-7,43 L-12,24 L-10,16 L-4,7 L-3,2 L0,2 Z M1,1 Z " fill="#FBFCFC" transform="translate(265,145)"/>
<path d="M0,0 L4,1 L6,3 L12,4 L24,10 L40,43 L47,58 L45,62 L39,67 L34,67 L30,58 L26,50 L20,33 L18,28 L16,34 L13,35 L11,39 L8,36 L7,31 L2,28 L-4,19 L-5,14 L-8,10 L-7,4 Z " fill="#FBFCFC" transform="translate(235,283)"/>
<path d="M0,0 L18,1 L40,3 L40,9 L42,9 L45,15 L45,22 L40,22 L34,33 L32,35 L7,35 L-2,21 L-2,16 L-1,13 L-1,3 Z " fill="#FDFDFD" transform="translate(139,227)"/>
<path d="M0,0 L6,0 L2,7 L7,2 L9,0 L25,0 L33,12 L32,16 L34,17 L34,26 L32,34 L16,34 L-8,32 L-8,26 L-10,26 L-12,17 L-9,9 Z " fill="#FBFCFD" transform="translate(307,216)"/>
<path d="M0,0 L1,0 L1,17 L3,23 L10,22 L11,27 L16,24 L21,22 L36,11 L45,6 L50,4 L47,8 L39,12 L28,20 L25,23 L34,36 L38,38 L39,43 L43,45 L45,52 L58,70 L67,83 L66,76 L64,68 L65,63 L66,67 L70,82 L70,85 L67,85 L67,88 L74,88 L74,89 L64,91 L57,95 L55,94 L55,92 L60,89 L62,89 L53,76 L41,58 L35,51 L29,47 L23,45 L22,47 L20,47 L19,49 L20,51 L22,52 L22,57 L19,58 L7,32 L9,31 L4,26 L-4,21 L-8,20 L-8,17 L-3,19 Z M22,22 Z M10,29 Z M59,91 Z M57,92 Z M1,16 Z M38,39 Z " fill="#F8FAFB" transform="translate(188,102)"/>
<path d="M0,0 L6,1 L11,4 L14,10 L16,11 L15,16 L9,27 L0,42 L-9,55 L-17,56 L-29,68 L-30,66 L-26,56 L-22,54 L-19,50 L-21,49 L-21,46 L-18,46 L-17,40 L-16,34 L-12,27 L-8,17 L-4,8 Z M11,8 L10,10 L12,10 Z M-18,40 Z M-22,50 Z " fill="#FCFDFD" transform="translate(324,159)"/>
<path d="M0,0 L1,2 L19,2 L24,22 L22,27 L13,42 L11,44 L-8,44 L-7,37 L-4,37 L-3,40 L-3,19 L-1,1 Z " fill="#FCFCFC" transform="translate(201,287)"/>
<path d="M0,0 L7,0 L7,18 L1,20 L-13,29 L-15,30 L-24,30 L-24,28 L-26,29 L-38,29 L-56,27 L-57,31 L-58,27 L-69,26 L-67,23 L-56,25 L-55,22 L-36,16 L-17,11 L-5,9 L1,9 L1,2 Z " fill="#F4F7F8" transform="translate(195,200)"/>
<path d="M0,0 L9,0 L18,1 L19,11 L20,27 L18,29 L11,30 L8,28 L3,28 L3,26 L1,26 L1,28 L-3,29 L-3,42 L-1,43 L-1,50 L-2,51 L18,52 L18,63 L17,70 L22,71 L19,72 L18,90 L29,90 L29,91 L17,92 L15,90 L15,60 L17,60 L17,57 L15,57 L15,54 L8,54 L8,56 L-8,57 L-6,62 L-13,61 L-16,58 L-17,63 L-20,62 L-21,58 L-21,47 L-20,41 L-12,42 L-12,39 L-10,39 L-8,34 L-1,22 L3,21 L8,24 L10,24 L12,21 L10,12 L9,8 L14,13 L16,17 L17,4 L9,4 L8,2 L0,1 Z M0,22 Z M3,23 Z M5,24 Z M6,25 Z M12,28 Z M16,72 L17,75 Z " fill="#52D6F2" transform="translate(258,188)"/>
<path d="M0,0 L5,2 L10,4 L10,2 L12,2 L13,5 L17,6 L18,10 L21,11 L22,14 L18,13 L13,10 L9,9 L8,12 L6,8 L4,8 L5,31 L10,31 L13,34 L4,34 L3,33 L1,51 L1,74 L-1,72 L-3,69 L-4,74 L-5,76 L12,76 L14,77 L16,72 L20,68 L19,74 L15,78 L-6,78 L-17,69 L-22,67 L-23,70 L-25,66 L-21,65 L-19,66 L-20,62 L-8,45 L-4,39 L2,22 L1,6 L2,3 L0,2 Z M2,2 Z M4,3 Z M6,4 L7,6 Z M13,8 Z M15,9 Z M16,10 Z M18,11 Z " fill="#FBFBFB" transform="translate(198,255)"/>
<path d="M0,0 L9,0 L9,13 L-34,13 L-51,12 L-61,10 L-68,8 L-65,6 Z " fill="#FBFCFC" transform="translate(343,273)"/>
<path d="M0,0 L2,0 L2,2 L7,1 L12,4 L13,6 L19,8 L27,13 L26,22 L22,25 L20,25 L20,27 L22,28 L20,28 L20,34 L19,36 L17,36 L17,26 L-5,26 L-3,24 L-2,17 L-5,16 L-4,3 L0,2 Z " fill="#FBFDFE" transform="translate(259,214)"/>
<path d="M0,0 L18,0 L18,3 L14,4 L13,8 L18,5 L20,5 L18,9 L13,19 L7,29 L3,27 L2,23 L-3,22 L-2,18 L-12,17 L-13,10 L-3,2 Z " fill="#FAFDFD" transform="translate(213,238)"/>
<path d="M0,0 L3,3 L8,18 L13,29 L17,39 L22,39 L25,36 L31,38 L34,41 L29,41 L26,39 L22,42 L18,43 L15,46 L3,54 L-6,60 L-9,59 L-1,53 L4,50 L13,44 L11,40 L8,39 L6,33 L1,31 L2,27 L-8,13 L-7,11 L-5,10 L-5,7 L-1,6 Z M15,43 Z " fill="#E8EAEB" transform="translate(252,310)"/>
<path d="M0,0 L4,1 L20,8 L25,11 L25,13 L21,14 L20,16 L18,16 L15,26 L4,46 L-5,59 L10,59 L18,70 L21,75 L21,78 L19,78 L14,69 L9,61 L-7,61 L-12,67 L-14,67 L-12,62 L-11,61 L-16,61 L-25,70 L-28,79 L-26,80 L-27,84 L-29,84 L-30,78 L-31,71 L-29,65 L-28,69 L-23,65 L-16,58 L-8,58 L-6,54 L5,37 L14,22 L17,14 L14,13 L11,7 L1,3 L-1,9 L-4,13 L-5,7 L-2,6 Z M1,1 Z M12,11 L13,13 L11,12 Z " fill="#79E3F7" transform="translate(323,156)"/>
<path d="M0,0 L5,2 L10,4 L10,2 L12,2 L13,5 L17,6 L18,10 L21,11 L22,14 L18,13 L13,10 L9,9 L8,12 L6,8 L4,8 L5,31 L10,31 L13,34 L4,34 L3,33 L1,51 L-1,51 L-1,56 L-2,56 L-3,44 L-6,44 L-8,49 L-9,56 L-11,62 L-12,60 L-18,63 L-20,64 L-18,59 L-8,45 L-4,39 L2,22 L1,6 L2,3 L0,2 Z M2,2 Z M4,3 Z M6,4 L7,6 Z M13,8 Z M15,9 Z M16,10 Z M18,11 Z " fill="#BEF0FA" transform="translate(198,255)"/>
<path d="M0,0 L4,4 L8,10 L6,5 L5,2 L10,4 L20,10 L24,13 L24,26 L19,31 L14,26 L7,18 L7,15 L10,15 L5,10 L1,5 Z " fill="#F3F7F8" transform="translate(249,253)"/>
<path d="M0,0 L4,1 L4,7 L6,9 L7,9 L9,18 L13,23 L13,25 L17,26 L20,29 L20,35 L15,30 L12,27 L9,27 L4,28 L2,28 L1,31 L2,35 L0,36 L0,34 L-6,37 L-4,31 L0,25 L-4,8 L-4,5 L-1,5 L-1,3 L-9,2 L-9,1 Z M1,1 Z " fill="#F8F8F8" transform="translate(224,286)"/>
<path d="M0,0 L21,6 L21,10 L23,9 L22,35 L21,35 L21,44 L22,46 L27,46 L27,48 L21,48 L19,47 L19,30 L11,33 L-1,41 L-3,46 L-5,42 L1,37 L14,28 L19,28 L19,10 L2,12 L-36,15 L-47,15 L-47,14 L-7,10 L-5,9 L6,8 L7,4 L0,2 Z " fill="#708389" transform="translate(183,190)"/>
<path d="M0,0 L4,2 L9,3 L4,7 L-28,24 L-33,26 L-31,22 L-28,21 L-25,12 L-11,4 L-5,1 Z " fill="#D9DBDC" transform="translate(420,122)"/>
<path d="M0,0 L2,2 L2,7 L4,6 L5,4 L7,5 L7,7 L13,9 L14,13 L9,11 L3,10 L1,10 L1,13 L-1,13 L-2,18 L-10,35 L-11,39 L-13,39 L-10,30 L-11,26 L-13,25 L-13,20 L-39,19 L-41,16 L-39,15 L-38,17 L-13,17 L-10,12 L-5,4 L-1,4 Z M6,7 Z M9,9 Z M11,10 Z " fill="#92989A" transform="translate(184,244)"/>
<path d="M0,0 L1,0 L3,16 L6,28 L2,32 L-3,35 L-5,35 L-7,30 L-8,15 L-9,13 L-2,2 Z " fill="#CFF4FC" transform="translate(236,247)"/>
<path d="M0,0 L4,1 L4,3 L-1,4 L-1,6 L1,6 L1,8 L5,10 L10,14 L15,17 L19,23 L19,25 L17,25 L17,28 L9,27 L8,29 L5,23 L0,15 L-4,11 L-6,7 L-5,3 Z M1,1 Z M-1,2 Z M-3,3 Z " fill="#5CDFF9" transform="translate(229,202)"/>
<path d="M0,0 L6,0 L11,5 L18,12 L14,19 L10,19 L6,14 L2,12 L-6,12 L-8,7 L-2,3 L0,3 Z M2,10 Z " fill="#F7FBFC" transform="translate(249,273)"/>
<path d="M0,0 L1,0 L1,20 L2,20 L3,26 L5,28 L5,39 L3,39 L2,49 L1,49 L1,30 L0,26 L-9,27 L-38,27 L-38,26 L-26,25 L-26,24 L-1,24 L-1,11 L-54,16 L-66,16 L-66,15 L-11,10 L-2,10 L-1,1 Z M-1,8 L0,10 Z " fill="#7A9397" transform="translate(353,262)"/>
<path d="M0,0 L6,2 L7,8 L11,10 L13,17 L26,35 L35,48 L34,41 L32,33 L33,28 L34,32 L38,47 L38,50 L35,50 L35,53 L42,53 L42,54 L32,56 L25,60 L23,59 L23,57 L30,53 L32,52 L16,28 L14,22 L10,20 L8,13 L0,2 Z M27,56 Z M25,57 Z M6,4 Z " fill="#878A8B" transform="translate(220,137)"/>
<path d="M0,0 L3,3 L3,5 L5,5 L11,13 L16,21 L15,26 L13,26 L10,29 L4,32 L3,29 L4,26 L0,11 Z M9,27 Z M5,29 Z " fill="#5BDFF9" transform="translate(237,248)"/>
<path d="M0,0 L7,0 L7,21 L2,19 L-1,16 L4,15 L-12,7 L-16,3 L-13,2 L0,2 Z " fill="#96EAFB" transform="translate(266,242)"/>
<path d="M0,0 L9,0 L18,1 L19,11 L20,27 L18,29 L11,30 L8,28 L3,28 L3,26 L1,26 L1,28 L-3,29 L-3,40 L-4,40 L-4,27 L0,21 L5,22 L10,24 L12,21 L10,12 L9,8 L14,13 L16,17 L17,4 L9,4 L8,2 L0,1 Z M0,22 Z M3,23 Z M5,24 Z M6,25 Z M12,28 Z " fill="#868B8D" transform="translate(258,188)"/>
<path d="M0,0 L2,0 L2,2 L7,1 L6,5 L1,13 L7,9 L15,8 L10,14 L0,22 L-1,24 L7,19 L9,19 L9,21 L1,26 L-5,26 L-3,24 L-2,17 L-5,16 L-4,3 L0,2 Z " fill="#66E2FA" transform="translate(259,214)"/>
<path d="M0,0 L12,1 L12,8 L9,9 L11,16 L14,21 L7,20 L4,17 L3,22 L0,21 L-1,17 L-1,6 Z " fill="#4BC4F8" transform="translate(238,229)"/>
<path d="M0,0 L5,1 L19,10 L18,12 L11,10 L10,14 L12,18 L7,16 L-8,7 L-14,3 L-10,2 L-8,1 L-7,5 L-3,4 L-2,1 Z " fill="#E2E5E7" transform="translate(397,314)"/>
<path d="M0,0 L1,0 L1,17 L3,23 L10,22 L11,27 L16,24 L21,22 L36,11 L45,6 L50,4 L47,8 L39,12 L28,20 L25,23 L32,33 L31,35 L26,30 L24,29 L24,24 L15,28 L9,33 L7,31 L9,31 L4,26 L-4,21 L-8,20 L-8,17 L-3,19 Z M22,22 Z M10,29 Z M1,16 Z " fill="#4A4A4A" transform="translate(188,102)"/>
<path d="M0,0 L6,3 L9,3 L9,0 L25,9 L29,11 L29,12 L24,13 L31,17 L30,20 L15,11 L12,9 L16,15 L15,18 L8,8 L9,14 L4,9 L0,2 Z " fill="#62DEF9" transform="translate(242,246)"/>
<path d="M0,0 L4,1 L20,8 L25,11 L25,13 L21,14 L20,16 L18,16 L15,26 L4,46 L1,45 L3,40 L12,25 L16,17 L17,14 L14,13 L11,7 L1,3 L-1,9 L-4,13 L-5,7 L-2,6 Z M1,1 Z M12,11 L13,13 L11,12 Z " fill="#F6F7F7" transform="translate(323,156)"/>
<path d="M0,0 L2,4 L5,4 L6,7 L5,14 L3,12 L2,23 L11,23 L6,27 L4,27 L3,40 L-2,41 L-12,46 L-14,46 L-15,43 L-9,42 L-10,38 L-5,37 L-3,36 L-1,37 L0,26 L0,13 L-1,12 L-1,5 Z M1,24 L2,26 Z M1,33 L2,35 Z M1,38 Z " fill="#939393" transform="translate(124,182)"/>
<path d="M0,0 L5,1 L19,11 L23,15 L29,19 L31,25 L42,42 L46,48 L45,50 L40,46 L22,19 L16,12 L0,1 Z " fill="#69E1F9" transform="translate(207,141)"/>
<path d="M0,0 L4,0 L2,97 L1,97 L0,58 L-5,59 L-6,58 L-6,53 L-3,53 L-4,38 L-2,38 L-1,43 L0,46 L2,46 L2,6 L3,1 Z " fill="#AEB1B1" transform="translate(232,4)"/>
<path d="M0,0 L2,1 L5,6 L13,6 L19,10 L22,14 L28,13 L26,17 L24,17 L30,30 L29,33 L21,17 L21,15 L15,13 L7,9 L2,9 L1,6 L-5,7 L-10,9 L-10,6 Z M-1,2 Z M-3,3 Z M25,15 Z M22,16 Z M13,5 Z " fill="#939494" transform="translate(238,278)"/>
<path d="M0,0 L1,0 L2,12 L-2,14 L-12,31 L-16,32 L-14,26 L-7,14 L-3,7 L-8,10 L-10,10 L-9,6 L-3,2 Z " fill="#4DD4F4" transform="translate(236,236)"/>
<path d="M0,0 L5,2 L20,11 L28,15 L31,18 L33,20 L30,21 L30,19 L21,20 L12,12 L10,8 L9,10 L5,8 L5,5 L1,5 Z " fill="#7CB7CA" transform="translate(69,146)"/>
<path d="M0,0 L5,5 L15,19 L15,21 L24,17 L28,15 L35,19 L31,20 L27,18 L23,21 L19,22 L16,25 L4,33 L-5,39 L-8,38 L0,32 L5,29 L14,23 L12,19 L9,18 L7,12 L2,10 L3,6 L0,2 Z M16,22 Z " fill="#808F92" transform="translate(251,331)"/>
<path d="M0,0 L5,2 L10,4 L10,2 L12,2 L13,5 L17,6 L18,10 L21,11 L22,14 L18,13 L13,10 L9,9 L8,12 L6,8 L4,8 L5,31 L10,31 L13,34 L4,34 L1,6 L2,3 L0,2 Z M2,2 Z M4,3 Z M6,4 L7,6 Z M13,8 Z M15,9 Z M16,10 Z M18,11 Z " fill="#528F9A" transform="translate(198,255)"/>
<path d="M0,0 L4,1 L4,7 L6,9 L7,9 L8,18 L3,13 L1,8 L-1,8 L2,21 L1,31 L2,35 L0,36 L0,34 L-6,37 L-4,31 L0,25 L-4,8 L-4,5 L-1,5 L-1,3 L-9,2 L-9,1 Z M1,1 Z " fill="#8B8C8C" transform="translate(224,286)"/>
<path d="M0,0 L21,6 L20,8 L2,11 L2,12 L-36,15 L-47,15 L-47,14 L-7,10 L-5,9 L6,8 L7,4 L0,2 Z " fill="#898989" transform="translate(183,190)"/>
<path d="M0,0 L1,4 L-3,13 L-2,16 L1,16 L3,15 L5,16 L3,22 L1,23 L3,29 L1,29 L1,26 L-2,26 L-3,28 L-4,22 L-15,16 L-18,16 L-18,13 L-12,13 L-7,15 Z M-11,16 Z M-5,19 Z M-4,20 Z M-2,21 Z " fill="#CDECF6" transform="translate(289,205)"/>
<path d="M0,0 L3,4 L9,16 L13,15 L14,13 L19,14 L22,12 L26,15 L26,17 L16,20 L12,21 L16,31 L15,34 L11,35 L13,30 L10,24 L8,20 L0,3 Z " fill="#F6F6F6" transform="translate(268,311)"/>
<path d="M0,0 L4,0 L4,10 L6,10 L10,21 L6,25 L1,26 L1,3 Z " fill="#F8FCFD" transform="translate(232,254)"/>
<path d="M0,0 L7,2 L13,6 L11,7 L7,32 L6,32 L5,19 L5,16 L3,11 L2,7 L0,4 Z " fill="#D5D5D5" transform="translate(282,350)"/>
<path d="M0,0 L5,2 L20,9 L24,10 L26,4 L28,2 L27,7 L25,11 L29,13 L29,15 L41,18 L44,16 L42,21 L36,20 L36,34 L34,35 L34,19 L28,16 L28,14 L26,14 L26,12 L20,12 L4,4 L-4,2 Z " fill="#595959" transform="translate(130,309)"/>
<path d="M0,0 L1,3 L0,5 L-2,4 L-3,9 L-5,11 L-6,15 L-5,18 L-7,18 L-7,20 L-11,19 L-12,15 L-14,20 L-18,21 L-22,25 L-23,35 L-24,35 L-24,24 Z " fill="#ACACAC" transform="translate(144,102)"/>
<path d="M0,0 L10,1 L19,3 L19,4 L4,4 L3,9 L1,8 L0,4 L0,8 L-3,9 L-5,12 L-6,7 L-5,3 L-7,3 L-8,12 L-10,18 L-11,18 L-10,6 L-9,1 L-1,1 Z " fill="#A3A3A3" transform="translate(213,0)"/>
<path d="M0,0 L2,1 L1,3 L6,0 L8,0 L6,4 L1,14 L-2,14 L-4,13 L-4,11 L-11,12 L-6,7 L-2,1 Z " fill="#EBF9FB" transform="translate(225,243)"/>
<path d="M0,0 L15,0 L19,2 L17,4 L-1,6 L-11,13 L-13,13 L-11,9 L-6,4 L-2,3 Z " fill="#7EDFF7" transform="translate(216,232)"/>
<path d="M0,0 L5,2 L6,4 L12,6 L19,10 L17,12 L12,13 L10,9 L5,12 L3,11 L6,7 L-2,9 L-6,11 L-4,6 Z " fill="#E2F7FB" transform="translate(266,216)"/>
<path d="M0,0 L7,1 L27,6 L27,7 L18,7 L12,9 L9,9 L11,4 L4,6 L2,2 L0,2 L-1,7 L-4,8 L-4,6 L-9,7 L-5,3 Z M1,4 Z " fill="#ABABAB" transform="translate(275,80)"/>
<path d="M0,0 L4,2 L-6,12 L-11,12 L-18,7 L-18,6 L-10,5 L-10,3 L-4,4 L-2,3 L-2,1 Z " fill="#E9E9E9" transform="translate(337,367)"/>
<path d="M0,0 L6,2 L7,8 L11,10 L13,17 L26,35 L25,37 L22,33 L20,34 L16,28 L14,22 L10,20 L8,13 L0,2 Z M6,4 Z " fill="#A6A8A9" transform="translate(220,137)"/>
<path d="M0,0 L3,3 L7,11 L6,14 L2,12 L-6,12 L-8,7 L-2,3 L0,3 Z M2,10 Z " fill="#F9FBFB" transform="translate(249,273)"/>
<path d="M0,0 L3,1 L2,5 L2,16 L8,19 L8,21 L10,21 L10,23 L7,23 L7,20 L-7,20 L-11,24 L-10,20 L-6,14 L-1,14 L-2,3 L0,3 Z M-3,15 L0,17 L0,15 Z " fill="#848484" transform="translate(312,134)"/>
<path d="M0,0 L6,0 L18,10 L36,11 L38,12 L40,7 L44,3 L43,9 L39,13 L18,13 L7,4 L2,2 L1,5 L-1,1 Z " fill="#444444" transform="translate(174,320)"/>
<path d="M0,0 L1,0 L2,8 L3,8 L4,31 L2,29 L0,19 L0,12 L-2,11 L-1,7 L-4,10 L-6,10 L-5,4 L-3,1 Z " fill="#EAF9FC" transform="translate(195,298)"/>
<path d="M0,0 L2,0 L3,33 L-1,32 L-1,4 Z M1,33 Z " fill="#B6EAFC" transform="translate(248,393)"/>
<path d="M0,0 L7,6 L2,17 L0,17 L0,25 L-3,25 L-5,29 L-8,29 L-12,33 L-10,28 L2,11 L4,6 L-1,1 Z " fill="#A2A2A2" transform="translate(294,152)"/>
<path d="M0,0 L16,1 L11,6 L6,9 L-1,8 L-1,1 Z " fill="#A7E0EB" transform="translate(276,250)"/>
<path d="M0,0 L1,0 L2,6 L5,7 L4,10 L11,11 L12,16 L10,19 L10,15 L-2,12 L-15,11 L-17,9 L-2,9 L-2,6 L0,6 L-1,1 Z M-2,10 Z " fill="#787878" transform="translate(341,241)"/>
<path d="M0,0 L3,3 L8,18 L13,29 L17,39 L18,41 L14,42 L13,36 L6,21 L1,7 Z " fill="#9EEBFA" transform="translate(252,310)"/>
<path d="M0,0 L13,3 L13,15 L12,30 L11,30 L10,13 L9,19 L8,19 L8,8 L12,8 L12,4 L7,5 L5,7 L5,5 L0,5 L0,1 Z " fill="#A7A7A7" transform="translate(303,87)"/>
<path d="M0,0 L5,1 L19,11 L23,15 L29,19 L29,24 L26,25 L20,17 L16,12 L0,1 Z " fill="#8BE1FA" transform="translate(207,141)"/>
<path d="M0,0 L2,1 L0,3 L5,3 L3,9 L10,8 L7,12 L-7,12 L-2,8 L1,7 L1,5 L-7,10 L-9,10 L-8,7 Z " fill="#ECFAFD" transform="translate(267,228)"/>
<path d="M0,0 L1,4 L0,5 L0,13 L-6,18 L-10,28 L-12,28 L-12,18 L-9,16 L-8,17 L-7,10 L-3,6 Z " fill="#B1B1B1" transform="translate(170,283)"/>
<path d="M0,0 L17,1 L48,3 L48,4 L12,4 L1,2 Z " fill="#71E3FA" transform="translate(292,284)"/>
<path d="M0,0 L1,2 L-7,14 L-8,21 L-10,27 L-11,25 L-17,28 L-19,29 L-17,24 L-7,10 Z " fill="#899CA0" transform="translate(197,290)"/>
<path d="M0,0 L1,0 L2,45 L4,42 L5,45 L7,47 L6,48 L11,50 L8,51 L-1,49 Z " fill="#838383" transform="translate(243,425)"/>
<path d="M0,0 L2,2 L4,7 L8,15 L8,17 L6,17 L3,11 L1,10 L1,8 L-6,10 L-12,10 L-8,6 L-3,3 L-1,3 Z " fill="#F4F5F5" transform="translate(270,352)"/>
<path d="M0,0 L2,1 L0,5 L-12,13 L-14,14 L-15,12 L-20,12 L-17,9 Z " fill="#AFB2B3" transform="translate(104,322)"/>
<path d="M0,0 L7,6 L15,15 L15,17 L6,14 L0,5 L-1,1 Z " fill="#E5F6F9" transform="translate(228,211)"/>
<path d="M0,0 L2,4 L1,8 L-2,11 L-1,17 L-7,20 L-10,26 L-11,23 L-4,8 L-4,2 Z M0,4 Z M-4,14 Z " fill="#B0B0B0" transform="translate(306,195)"/>
<path d="M0,0 L7,0 L6,5 L11,5 L11,6 L2,7 L-12,3 L-9,1 Z " fill="#F0F2F3" transform="translate(287,278)"/>
<path d="M0,0 L7,0 L7,2 L0,3 L-9,12 L-12,21 L-10,22 L-11,26 L-13,26 L-14,20 L-15,13 L-13,7 L-12,11 L-7,7 Z " fill="#6F7171" transform="translate(307,214)"/>
<path d="M0,0 L6,0 L6,2 L-13,5 L-30,10 L-35,10 L-34,8 L-16,3 Z " fill="#9CECFB" transform="translate(190,209)"/>
<path d="M0,0 L1,0 L1,17 L3,23 L10,22 L11,28 L4,26 L-4,21 L-8,20 L-8,17 L-3,19 Z M1,16 Z " fill="#9B9B9B" transform="translate(188,102)"/>
<path d="M0,0 L5,1 L13,6 L13,9 L8,7 L3,7 L3,5 L1,5 L1,7 L-3,8 L-3,19 L-4,19 L-4,6 Z M0,1 Z M3,2 Z M5,3 Z M6,4 Z " fill="#A8B3B5" transform="translate(258,209)"/>
<path d="M0,0 L1,0 L1,25 L4,26 L1,35 L-1,34 L-1,2 Z " fill="#FDFEFE" transform="translate(246,400)"/>
<path d="M0,0 L5,2 L7,2 L7,4 L14,5 L15,8 L17,10 L16,12 L22,12 L22,16 L17,14 L6,7 L-2,2 Z M9,6 Z " fill="#D3D3D3" transform="translate(418,335)"/>
<path d="M0,0 L4,1 L4,3 L-1,4 L-1,6 L1,6 L1,8 L5,10 L7,14 L3,13 L-1,10 L-2,14 L-6,7 L-5,3 Z M1,1 Z M-1,2 Z M-3,3 Z " fill="#76BCCA" transform="translate(229,202)"/>
<path d="M0,0 L3,2 L4,10 L6,17 L6,22 L1,17 L-2,13 L-1,4 L1,4 Z " fill="#F5F5F5" transform="translate(250,164)"/>
<path d="M0,0 L3,3 L15,28 L14,31 L6,15 L5,11 L-6,15 L-8,15 L-8,13 L2,9 L1,4 Z " fill="#373737" transform="translate(195,136)"/>
<path d="M0,0 L3,1 L4,5 L8,5 L7,10 L10,14 L9,16 L11,18 L8,18 L0,13 L3,10 L1,4 Z " fill="#F4F4F4" transform="translate(280,334)"/>
<path d="M0,0 L5,1 L5,3 L3,3 L5,7 L13,10 L13,11 L22,13 L21,16 L21,14 L19,14 L19,16 L14,15 L2,8 L2,6 L-2,5 Z " fill="#EDF1F2" transform="translate(189,243)"/>
<path d="M0,0 L2,1 L-7,7 L-19,13 L-31,21 L-34,20 L-24,13 L-8,4 Z " fill="#A7E6FB" transform="translate(419,119)"/>
<path d="M0,0 L2,0 L2,2 L0,2 L-1,6 L-2,7 L-9,7 L-9,11 L-12,12 L-16,11 L-17,13 L-20,11 Z " fill="#B9B9B9" transform="translate(82,334)"/>
<path d="M0,0 L10,1 L23,5 L28,14 L27,16 L22,7 L5,2 L0,3 L-5,10 L-8,10 L-6,5 L-2,1 Z M-6,7 Z " fill="#5F6262" transform="translate(272,281)"/>
<path d="M0,0 L3,1 L4,25 L2,25 L0,20 L-1,5 L-2,3 Z " fill="#B8EBFB" transform="translate(229,257)"/>
<path d="M0,0 L4,2 L5,7 L28,9 L28,11 L-3,11 L1,7 Z M3,5 Z " fill="#59686D" transform="translate(295,240)"/>
<path d="M0,0 L3,3 L9,16 L9,18 L18,21 L25,25 L25,26 L19,26 L16,23 L8,19 L2,20 L4,16 L6,15 L0,3 Z M4,17 Z " fill="#426672" transform="translate(210,167)"/>
<path d="M0,0 L2,1 L2,5 L1,8 L5,9 L2,11 L-5,11 L-7,10 L-6,6 L-1,1 Z " fill="#EBEBEB" transform="translate(429,114)"/>
<path d="M0,0 L4,3 L4,5 L8,7 L9,9 L5,8 L8,13 L17,24 L14,24 L6,15 L3,12 L2,7 L0,4 Z " fill="#93E3F9" transform="translate(251,260)"/>
<path d="M0,0 L1,3 L6,4 L3,5 L2,23 L13,23 L13,24 L1,25 L-1,23 L-1,1 Z M0,5 L1,8 Z " fill="#5F7A81" transform="translate(274,255)"/>
<path d="M0,0 L4,1 L20,8 L25,11 L25,13 L19,11 L5,4 L1,3 L-1,9 L-4,13 L-5,7 L-2,6 Z M1,1 Z " fill="#454545" transform="translate(323,156)"/>
<path d="M0,0 L1,4 L3,5 L1,5 L2,9 L2,10 L-1,14 L-2,12 L-4,12 L-5,16 L-4,18 L-8,16 L-7,12 L-5,10 L-3,3 Z " fill="#E5E5E5" transform="translate(24,135)"/>
<path d="M0,0 L3,1 L-5,14 L-8,19 L-12,20 L-10,14 L-4,4 Z " fill="#69CFE3" transform="translate(232,248)"/>
<path d="M0,0 L12,2 L36,4 L42,5 L42,6 L30,6 L12,4 L11,8 L10,4 L-1,3 Z " fill="#454545" transform="translate(127,223)"/>
<path d="M0,0 L5,0 L9,4 L9,1 L12,1 L15,7 L15,9 L17,10 L15,13 L11,11 L8,6 L1,2 Z " fill="#C9F3FB" transform="translate(234,212)"/>
<path d="M0,0 L5,5 L10,11 L12,16 L8,17 L2,8 L0,4 Z " fill="#D8F6FC" transform="translate(241,254)"/>
<path d="M0,0 L4,1 L8,9 L11,18 L6,13 L-1,3 Z " fill="#EFF6F8" transform="translate(256,333)"/>
<path d="M0,0 L3,1 L6,7 L8,10 L8,14 L10,16 L10,18 L1,15 L-2,12 L5,11 L0,2 Z " fill="#B3E9FC" transform="translate(85,274)"/>
<path d="M0,0 L1,3 L-5,15 L-10,17 L-10,13 L-8,13 L-8,8 L-3,2 Z " fill="#F9FAFA" transform="translate(184,250)"/>
<path d="M0,0 L2,0 L2,2 L6,1 L4,5 L-3,14 L-4,14 L-4,3 L0,2 Z " fill="#F8FCFD" transform="translate(259,214)"/>
<path d="M0,0 L3,1 L4,5 L-6,15 L-6,12 L-6,6 L-5,4 L-2,4 Z " fill="#E8E8E8" transform="translate(350,351)"/>
<path d="M0,0 L9,6 L15,11 L13,12 L7,12 L5,11 L5,7 L1,5 L-2,6 Z M3,5 Z " fill="#D7D7D7" transform="translate(425,298)"/>
<path d="M0,0 L21,0 L28,6 L27,8 L21,3 L4,2 L1,1 L-1,6 L-3,7 L-3,2 L0,2 Z " fill="#4A4A4A" transform="translate(265,145)"/>
<path d="M0,0 L3,4 L10,18 L10,20 L15,19 L15,21 L12,21 L16,31 L15,34 L11,35 L13,30 L10,24 L8,20 L0,3 Z " fill="#3D3D3D" transform="translate(268,311)"/>
<path d="M0,0 L2,0 L7,8 L7,13 L5,13 L6,16 L4,17 L0,6 Z " fill="#FCFCFC" transform="translate(223,294)"/>
<path d="M0,0 L1,0 L2,6 L4,8 L4,19 L2,19 L1,29 L0,29 L0,10 L-1,10 L-1,2 Z " fill="#9C9FA0" transform="translate(354,282)"/>
<path d="M0,0 L2,0 L5,12 L5,16 L12,12 L14,13 L14,15 L12,15 L9,18 L3,21 L2,18 L3,15 L0,4 Z M8,16 Z M4,18 Z " fill="#7DD3E3" transform="translate(238,259)"/>
<path d="M0,0 L17,0 L17,11 L15,16 L14,16 L14,8 L16,8 L16,5 L14,5 L14,2 L-2,2 Z " fill="#70B0BF" transform="translate(259,240)"/>
<path d="M0,0 L1,4 L-4,13 L-7,20 L-10,26 L-11,23 L-8,17 L-7,7 L-1,2 Z " fill="#9F9F9F" transform="translate(318,169)"/>
<path d="M0,0 L1,0 L2,23 L0,23 L-1,39 L4,39 L4,41 L-2,40 L-2,29 Z " fill="#8D8D8D" transform="translate(164,348)"/>
<path d="M0,0 L3,1 L4,6 L-4,19 L-6,16 L-6,14 L-8,14 L-7,12 L-3,11 L-3,9 L-1,7 L0,5 L2,5 L1,3 L-1,4 Z " fill="#F5F5F5" transform="translate(221,305)"/>
<path d="M0,0 L5,0 L8,7 L11,7 L11,13 L8,13 L2,4 L-13,3 L-13,2 L0,1 Z " fill="#F6F6F6" transform="translate(331,212)"/>
<path d="M0,0 L5,1 L6,0 L11,0 L11,4 L7,4 L7,16 L5,15 L2,3 Z " fill="#C6EEFC" transform="translate(304,91)"/>
<path d="M0,0 L3,1 L0,3 L-1,6 L-12,10 L-15,11 L-16,5 L-11,4 L-9,6 Z " fill="#EBF7FB" transform="translate(100,329)"/>
<path d="M0,0 L2,2 L2,7 L4,6 L5,4 L7,5 L7,7 L13,9 L14,13 L9,11 L3,10 L1,10 L1,13 L-1,13 L0,7 L-3,7 L-1,5 Z M6,7 Z M9,9 Z M11,10 Z " fill="#919393" transform="translate(184,244)"/>
<path d="M0,0 L5,0 L18,9 L16,10 L12,10 L10,6 L7,6 L1,6 L-2,2 Z " fill="#D7D7D7" transform="translate(147,99)"/>
<path d="M0,0 L2,0 L7,6 L1,8 L-4,6 L-9,7 L-13,8 L-10,5 Z " fill="#A8A8A8" transform="translate(366,250)"/>
<path d="M0,0 L2,2 L3,11 L2,12 L3,19 L8,27 L5,27 L-2,16 L-1,12 Z M0,6 L1,8 Z " fill="#6E6E6E" transform="translate(136,231)"/>
<path d="M0,0 L2,4 L7,22 L6,27 L4,26 L4,22 L0,20 L1,17 L3,17 L2,8 L0,8 Z " fill="#A4A4A4" transform="translate(399,206)"/>
<path d="M0,0 L3,0 L3,3 L5,4 L3,7 L1,10 L-1,10 L-1,7 L-4,7 L-5,11 L-7,11 L-5,5 Z " fill="#F5F5F5" transform="translate(183,150)"/>
<path d="M0,0 L4,2 L4,4 L8,6 L14,8 L10,9 L-12,3 L-8,2 L-3,2 Z " fill="#C9C9C9" transform="translate(181,387)"/>
<path d="M0,0 L3,1 L3,3 L15,6 L18,4 L16,9 L10,8 L10,22 L8,23 L8,7 L2,4 L2,2 L0,2 Z " fill="#4B4B4B" transform="translate(156,321)"/>
<path d="M0,0 L2,4 L5,4 L6,7 L5,14 L3,12 L2,18 L1,18 L-1,12 L-1,5 Z " fill="#BCBCBC" transform="translate(124,182)"/>
<path d="M0,0 L3,4 L4,8 L-1,16 L-2,16 L-2,1 Z " fill="#B5EEFA" transform="translate(204,262)"/>
<path d="M0,0 L1,3 L-9,22 L-12,21 L-10,16 Z " fill="#74E4FA" transform="translate(336,180)"/>
<path d="M0,0 L4,0 L2,5 L-1,9 L-5,7 L-9,3 L-7,3 L-6,1 L-6,3 L-4,3 L-3,1 Z " fill="#EFEFEF" transform="translate(302,148)"/>
<path d="M0,0 L3,0 L5,7 L9,9 L11,18 L9,16 L8,10 L4,9 L3,5 L-1,3 L-5,2 Z M3,10 L7,12 L4,14 L2,13 Z " fill="#B5B5B5" transform="translate(426,90)"/>
<path d="M0,0 L5,2 L1,5 L-13,12 L-16,11 L-8,7 L-6,3 L-4,3 L-3,1 Z " fill="#AAAAAA" transform="translate(390,235)"/>
<path d="M0,0 L3,1 L4,6 L0,7 L2,10 L2,20 L0,20 L-1,17 L-1,6 Z " fill="#49A6F9" transform="translate(238,229)"/>
<path d="M0,0 L2,2 L-8,9 L-20,17 L-23,16 L-15,10 L-10,7 Z " fill="#4F4F4F" transform="translate(266,353)"/>
<path d="M0,0 L2,1 L1,3 L6,0 L8,0 L6,4 L4,9 L1,7 L-2,7 L-5,8 L-3,2 Z " fill="#C3F0F9" transform="translate(225,243)"/>
<path d="M0,0 L6,4 L6,7 L4,8 L4,11 L1,11 L0,13 L-4,12 L-4,8 L-2,8 L-2,10 L0,10 L-1,5 L-1,2 Z M1,4 Z M2,5 Z M1,6 L2,8 Z M-3,10 Z " fill="#494949" transform="translate(31,162)"/>
<path d="M0,0 L3,1 L2,4 L-1,3 L-6,7 L-14,7 L-15,10 L-23,10 L-21,8 Z " fill="#ABABAB" transform="translate(374,110)"/>
<path d="M0,0 L16,0 L24,11 L27,16 L27,19 L25,19 L20,10 L15,2 L0,1 Z " fill="#3B3C3C" transform="translate(317,215)"/>
<path d="M0,0 L6,0 L4,5 L2,10 L2,12 L-2,12 L-3,3 L0,2 Z M3,2 Z M2,3 Z M1,5 Z M0,6 Z M-1,8 Z " fill="#9A9A9A" transform="translate(208,187)"/>
<path d="M0,0 L5,2 L8,0 L10,3 L9,6 L6,6 L7,10 L3,8 L-4,2 L-1,2 L0,2 Z " fill="#B9B9B9" transform="translate(46,170)"/>
<path d="M0,0 L4,2 L-6,12 L-11,12 L-13,9 L-6,10 L-5,5 L-2,3 L-2,1 Z " fill="#A0A0A0" transform="translate(337,367)"/>
<path d="M0,0 L4,2 L6,3 L6,5 L10,7 L14,11 L7,9 L2,9 L1,6 L-1,4 L1,2 Z " fill="#B9B9B9" transform="translate(390,270)"/>
<path d="M0,0 L3,0 L5,4 L4,14 L3,16 L1,16 L-1,6 L-4,5 L-1,2 L2,7 L1,3 Z " fill="#EBEBEB" transform="translate(341,227)"/>
<path d="M0,0 L1,2 L-1,2 L1,7 L-2,8 L-2,6 L-4,8 L-5,14 L-8,10 L-7,4 Z " fill="#D8F1F9" transform="translate(235,283)"/>
<path d="M0,0 L9,0 L9,1 L2,2 L2,4 L0,5 L-7,5 L-7,3 L-13,2 L-13,1 Z " fill="#F6F6F6" transform="translate(323,275)"/>
<path d="M0,0 L4,0 L2,6 L-5,14 L-6,11 L-1,1 Z " fill="#76C5DF" transform="translate(179,248)"/>
<path d="M0,0 L7,0 L12,1 L12,6 L5,5 L1,3 Z " fill="#F2FCFE" transform="translate(260,250)"/>
<path d="M0,0 L4,1 L8,0 L10,0 L10,2 L13,3 L10,5 L12,10 L3,4 Z " fill="#C3C3C3" transform="translate(62,187)"/>
<path d="M0,0 L6,0 L16,5 L13,7 L13,5 L4,6 Z " fill="#83CDE5" transform="translate(86,160)"/>
<path d="M0,0 L5,2 L13,7 L10,8 L7,9 L5,10 L3,9 L3,6 L1,6 Z " fill="#D4D4D4" transform="translate(51,135)"/>
<path d="M0,0 L9,0 L18,2 L18,3 L3,3 L2,8 L0,7 L-1,1 Z " fill="#C8C8C8" transform="translate(214,1)"/>
<path d="M0,0 L5,5 L5,7 L9,8 L12,11 L12,17 L7,12 L4,9 L2,8 Z " fill="#B5B5B5" transform="translate(232,304)"/>
<path d="M0,0 L2,0 L2,3 L-1,6 L-4,9 L-11,7 L-6,3 Z " fill="#C4C4C4" transform="translate(124,311)"/>
<path d="M0,0 L6,4 L17,13 L15,15 L11,11 L5,9 L5,6 L2,5 L0,3 Z M-2,3 L0,4 Z " fill="#A7A7A7" transform="translate(373,256)"/>
<path d="M0,0 L4,2 L11,10 L12,12 L11,14 L8,13 L7,12 L2,7 Z " fill="#E1F6FB" transform="translate(255,274)"/>
<path d="M0,0 L2,0 L2,2 L-6,6 L-7,9 L-4,10 L-16,9 L-12,6 Z " fill="#A7E2F6" transform="translate(315,239)"/>
<path d="M0,0 L2,1 L3,8 L-1,12 L-3,11 L-3,13 L-5,13 L-3,7 Z " fill="#F7F7F7" transform="translate(320,167)"/>
<path d="M0,0 L5,2 L12,6 L9,7 L9,9 L4,8 L4,6 L2,6 L0,4 L-1,1 Z " fill="#DCDCDC" transform="translate(39,128)"/>
<path d="M0,0 L7,4 L8,7 L6,7 L6,12 L2,8 L-1,8 Z " fill="#ECECEC" transform="translate(189,126)"/>
<path d="M0,0 L2,0 L0,7 L-6,7 L-8,6 L-10,11 L-11,11 L-11,6 Z " fill="#B4B4B4" transform="translate(49,352)"/>
<path d="M0,0 L5,1 L7,0 L9,2 L-3,10 L-5,7 L-3,5 L1,4 L1,2 L-1,1 Z " fill="#B8B8B8" transform="translate(231,371)"/>
<path d="M0,0 L1,2 L3,3 L0,3 L-2,7 L-4,10 L-6,9 L-7,10 L-11,10 L-11,6 L-4,5 L-2,1 Z " fill="#FDFDFD" transform="translate(84,335)"/>
<path d="M0,0 L7,6 L15,12 L11,13 L3,7 L0,3 Z " fill="#8ADEFB" transform="translate(271,293)"/>
<path d="M0,0 L2,2 L2,10 L-2,14 L-5,15 L-3,9 Z " fill="#72D9EC" transform="translate(200,277)"/>
<path d="M0,0 L9,3 L13,5 L12,9 L10,5 L6,5 L4,7 L4,4 L2,4 L2,6 L0,6 L0,4 L-2,3 L1,3 Z " fill="#EBEBEB" transform="translate(383,186)"/>
<path d="M0,0 L3,3 L7,11 L6,14 L1,11 Z M2,10 Z " fill="#D1F3FA" transform="translate(249,273)"/>
<path d="M0,0 L4,2 L4,4 L2,4 L0,8 L-4,11 L-6,11 L-4,6 Z " fill="#F1FBFD" transform="translate(266,216)"/>
<path d="M0,0 L3,0 L2,11 L-7,10 L-7,9 L-1,9 Z " fill="#ADADAD" transform="translate(272,466)"/>
<path d="M0,0 L4,1 L4,4 L7,5 L0,8 L-3,7 L-2,3 L-2,1 Z " fill="#CDCDCD" transform="translate(78,370)"/>
<path d="M0,0 L2,1 L5,7 L3,7 L2,3 L-8,9 L-10,8 L-10,6 Z M-1,2 Z M-3,3 Z " fill="#535353" transform="translate(238,278)"/>
<path d="M0,0 L3,1 L1,5 L0,6 L3,6 L1,11 L-1,13 L-3,2 L-1,2 Z M1,1 Z " fill="#DAF5FA" transform="translate(252,207)"/>
<path d="M0,0 L6,2 L14,6 L10,8 L9,5 L7,5 L6,7 L0,5 L2,3 L-1,3 Z " fill="#CDCDCD" transform="translate(367,178)"/>
<path d="M0,0 L5,2 L10,5 L10,10 L5,8 L5,5 L1,5 Z " fill="#C0D0D6" transform="translate(69,146)"/>
<path d="M0,0 L2,1 L2,4 L2,6 L-5,8 L-7,7 L-8,10 L-11,8 Z " fill="#A2A2A2" transform="translate(264,87)"/>
<path d="M0,0 L8,0 L16,2 L16,3 L7,3 L1,5 L-2,5 Z " fill="#FBFBFB" transform="translate(286,84)"/>
<path d="M0,0 L5,2 L9,6 L7,6 L5,18 L4,18 L3,12 L1,10 L4,9 L5,5 L2,6 Z " fill="#919191" transform="translate(286,351)"/>
<path d="M0,0 L4,1 L18,10 L17,12 L0,2 Z " fill="#90E0FB" transform="translate(398,314)"/>
<path d="M0,0 L9,0 L10,2 L5,3 L12,7 L11,10 L1,4 Z " fill="#86E7FB" transform="translate(261,256)"/>
<path d="M0,0 L5,0 L5,5 L2,6 L-6,5 L-2,1 Z " fill="#DBF2F8" transform="translate(294,250)"/>
<path d="M0,0 L4,0 L3,5 L-4,12 L-5,9 L-1,3 Z " fill="#47DCF9" transform="translate(62,209)"/>
<path d="M0,0 L2,0 L2,2 L9,2 L9,3 L-1,5 L-8,9 L-10,8 L-10,6 L-3,2 L-1,2 Z M-6,5 Z M-8,6 Z " fill="#546F75" transform="translate(253,188)"/>
<path d="M0,0 L2,0 L2,14 L-1,14 L-1,2 Z " fill="#AEE8FC" transform="translate(227,43)"/>
<path d="M0,0 L4,5 L6,9 L6,12 L2,13 L0,6 Z " fill="#CDF5FC" transform="translate(241,262)"/>
<path d="M0,0 L14,7 L14,9 L8,8 L0,3 Z " fill="#58DFF9" transform="translate(253,248)"/>
<path d="M0,0 L17,0 L17,2 L4,3 L0,4 Z " fill="#5FDBF9" transform="translate(249,242)"/>
<path d="M0,0 L2,0 L3,6 L-3,9 L-6,15 L-7,12 L-3,4 L-1,4 Z M0,3 Z " fill="#BABABA" transform="translate(302,206)"/>
<path d="M0,0 L6,1 L8,3 L8,8 L5,9 L0,2 Z " fill="#94E8F8" transform="translate(228,157)"/>
<path d="M0,0 L3,0 L4,5 L-1,10 L-4,13 L-9,12 L-9,11 L-3,9 L-1,5 L-1,2 Z " fill="#A0A0A0" transform="translate(449,340)"/>
<path d="M0,0 L6,0 L14,5 L14,8 L9,6 L3,3 L0,3 Z M7,3 Z " fill="#678891" transform="translate(271,218)"/>
<path d="M0,0 L2,0 L3,4 L8,2 L7,6 L0,10 L-2,9 L-1,6 L1,6 Z M5,4 Z " fill="#597E8A" transform="translate(235,193)"/>
<path d="M0,0 L4,1 L6,0 L9,2 L-1,8 L-3,7 L-2,4 L0,4 Z " fill="#B0B0B0" transform="translate(363,155)"/>
<path d="M0,0 L4,3 L6,8 L3,7 L3,4 L-5,3 L-5,5 L-12,4 L-9,2 Z M3,8 Z " fill="#D1D1D1" transform="translate(425,92)"/>
<path d="M0,0 L2,1 L0,5 L2,6 L-3,7 L-9,6 L-6,3 Z " fill="#AEAEAE" transform="translate(60,346)"/>
<path d="M0,0 L2,0 L3,8 L1,9 L1,7 L-5,10 L-3,4 Z " fill="#B7B7B7" transform="translate(223,313)"/>
<path d="M0,0 L6,0 L8,1 L9,3 L13,5 L13,8 L8,6 L0,1 Z " fill="#B2B2B2" transform="translate(370,308)"/>
<path d="M0,0 L4,2 L4,12 L1,13 Z " fill="#FAFDFD" transform="translate(268,263)"/>
<path d="M0,0 L4,4 L8,10 L10,9 L11,15 L6,12 L0,3 Z " fill="#D3F5FC" transform="translate(249,253)"/>
<path d="M0,0 L10,1 L5,6 L2,7 L0,6 Z " fill="#E4F3F8" transform="translate(276,252)"/>
<path d="M0,0 L2,1 L0,3 L5,3 L3,6 L-3,7 L-7,10 L-9,10 L-8,7 Z " fill="#CEF5FD" transform="translate(267,228)"/>
<path d="M0,0 L6,1 L7,4 L13,6 L11,8 L5,9 L3,2 Z " fill="#979797" transform="translate(44,379)"/>
<path d="M0,0 L7,6 L2,17 L-1,17 L1,12 L4,8 L2,4 L-1,1 Z " fill="#535353" transform="translate(294,152)"/>
<path d="M0,0 L10,2 L10,4 L7,5 L5,7 L5,5 L0,5 L0,1 Z " fill="#BFCBCF" transform="translate(303,87)"/>
<path d="M0,0 L6,2 L9,5 L4,5 L1,3 L-3,6 L-7,6 L-7,4 L-2,2 Z " fill="#686969" transform="translate(277,346)"/>
<path d="M0,0 L5,3 L11,8 L8,9 L7,11 L4,11 L3,6 L3,4 L0,2 Z " fill="#AEAEAE" transform="translate(440,310)"/>
<path d="M0,0 L4,2 L9,8 L8,11 L2,6 L1,3 L-1,1 Z " fill="#EBF9FE" transform="translate(269,287)"/>
<path d="M0,0 L1,0 L1,12 L-4,10 L-7,7 L-2,6 L0,5 Z " fill="#D4EFF5" transform="translate(272,251)"/>
<path d="M0,0 L9,2 L20,4 L20,5 L9,5 L6,5 L0,1 Z " fill="#D3F6FD" transform="translate(252,246)"/>
<path d="M0,0 L4,0 L7,10 L5,10 L5,7 L2,7 L1,9 L0,2 Z M2,2 Z " fill="#A4A4A4" transform="translate(285,224)"/>
<path d="M0,0 L1,3 L-4,10 L-4,13 L-10,14 L-6,8 Z " fill="#AAEDFB" transform="translate(265,215)"/>
<path d="M0,0 L1,0 L1,13 L-1,15 L-4,15 L-4,13 L-2,13 L-2,10 L-4,10 L-4,8 L-1,7 Z " fill="#E3E3E4" transform="translate(275,202)"/>
<path d="M0,0 L2,1 L2,3 L4,5 L-1,10 L-3,10 L-2,4 Z M-4,10 Z " fill="#F6F6F6" transform="translate(310,189)"/>
<path d="M0,0 L1,2 L0,6 L-2,8 L-2,19 L-4,16 L-5,10 L-2,3 Z " fill="#BDBDBD" transform="translate(258,157)"/>
<path d="M0,0 L2,2 L4,7 L8,15 L8,17 L6,17 L-1,3 Z " fill="#C8F2FB" transform="translate(270,352)"/>
<path d="M0,0 L3,0 L7,9 L2,7 L-2,3 L0,2 Z " fill="#C6C6C6" transform="translate(402,323)"/>
<path d="M0,0 L5,1 L7,4 L0,5 L-3,8 L-3,5 Z " fill="#ECECEC" transform="translate(176,322)"/>
<path d="M0,0 L4,1 L3,4 L1,4 L1,8 L-5,10 Z " fill="#F2F2F2" transform="translate(302,317)"/>
<path d="M0,0 L5,1 L5,5 L7,6 L7,9 L3,8 L-1,4 Z " fill="#F2F2F2" transform="translate(156,316)"/>
<path d="M0,0 L5,4 L8,7 L9,14 L4,9 L0,2 Z " fill="#9DE5F5" transform="translate(242,246)"/>
<path d="M0,0 L15,0 L15,3 L8,3 L0,1 Z " fill="#EFFBFE" transform="translate(257,245)"/>
<path d="M0,0 L2,1 L2,4 L4,4 L6,12 L4,13 L-2,1 Z M1,4 Z " fill="#F2F2F2" transform="translate(300,291)"/>
<path d="M0,0 L4,1 L7,8 L3,9 Z " fill="#F0F9FB" transform="translate(246,262)"/>
<path d="M0,0 L7,0 L7,7 L3,6 L6,6 L6,3 L-5,3 L-5,2 L0,2 Z " fill="#BFECF5" transform="translate(266,242)"/>
<path d="M0,0 L2,1 L-2,7 L-5,7 L-7,9 L-10,7 Z " fill="#A5A5A5" transform="translate(248,98)"/>
<path d="M0,0 L9,6 L9,9 L5,6 L1,5 L-2,6 Z " fill="#B0B0B0" transform="translate(425,298)"/>
<path d="M0,0 L6,1 L7,5 L10,6 L11,9 L7,8 L2,5 L3,2 L0,1 Z M4,4 Z M5,5 Z M7,6 Z " fill="#909292" transform="translate(209,260)"/>
<path d="M0,0 L1,0 L2,14 L3,16 L8,16 L8,18 L2,18 L0,17 Z " fill="#999A9A" transform="translate(202,220)"/>
<path d="M0,0 L5,1 L13,5 L13,6 L7,6 L7,4 L4,5 L1,3 L2,2 Z M-1,4 L1,5 L-1,6 Z " fill="#9F9F9F" transform="translate(354,172)"/>
<path d="M0,0 L2,3 L2,5 L-11,4 L-9,2 L0,2 Z " fill="#88DAF6" transform="translate(209,167)"/>
<path d="M0,0 L5,3 L10,10 L9,12 L6,8 L4,9 L0,3 Z " fill="#A1ABAD" transform="translate(236,162)"/>
<path d="M0,0 L7,2 L12,1 L13,7 L6,5 L0,1 Z " fill="#B4B4B4" transform="translate(186,123)"/>
<path d="M0,0 L5,1 L4,6 L-2,4 L-4,2 Z " fill="#CBCBCB" transform="translate(107,294)"/>
<path d="M0,0 L20,2 L20,3 L3,4 L0,1 Z " fill="#E2F8FD" transform="translate(295,286)"/>
<path d="M0,0 L7,1 L7,7 L4,8 Z " fill="#F5F5F5" transform="translate(139,250)"/>
<path d="M0,0 L1,2 L4,2 L4,4 L-2,4 L-1,9 L-3,9 L-7,4 Z " fill="#C7EAF6" transform="translate(243,197)"/>
<path d="M0,0 L5,5 L10,12 L9,14 L5,9 L1,7 Z " fill="#838A8C" transform="translate(229,150)"/>
<path d="M0,0 L3,4 L-2,9 L-5,9 L-6,7 Z " fill="#D3D3D3" transform="translate(265,148)"/>
<path d="M0,0 L2,0 L1,4 L-6,10 L-4,2 L0,2 Z " fill="#ABABAB" transform="translate(349,356)"/>
<path d="M0,0 L7,1 L4,3 L-6,6 L-6,2 L1,3 Z " fill="#AAAAAA" transform="translate(146,347)"/>
<path d="M0,0 L9,6 L10,8 L3,7 L3,5 L-2,3 L0,2 Z M1,3 Z " fill="#B0B0B0" transform="translate(415,290)"/>
<path d="M0,0 L5,2 L5,7 L4,8 L3,16 L2,16 L1,6 L2,3 L0,2 Z M2,2 Z " fill="#ABABAB" transform="translate(198,255)"/>
<path d="M0,0 L6,1 L8,6 L5,8 Z " fill="#F7F7F7" transform="translate(216,130)"/>
<path d="M0,0 L5,2 L15,9 L12,10 L8,8 L5,5 L2,4 Z " fill="#8D8D8D" transform="translate(165,109)"/>
<path d="M0,0 L1,3 L0,5 L-2,4 L-3,9 L-5,10 L-8,8 Z " fill="#A8A8A8" transform="translate(144,102)"/>
<path d="M0,0 L2,0 L2,3 L-3,6 L-4,4 L-9,4 L-6,1 Z " fill="#C9CBCC" transform="translate(93,330)"/>
<path d="M0,0 L5,1 L9,3 L8,6 L2,4 L0,3 Z " fill="#F1F1F1" transform="translate(135,314)"/>
<path d="M0,0 L2,0 L6,7 L3,8 L1,10 Z " fill="#F4F4F4" transform="translate(223,294)"/>
<path d="M0,0 L3,1 L3,3 L9,5 L10,9 L5,7 L0,4 Z M2,3 Z M5,5 Z M7,6 Z " fill="#616161" transform="translate(188,248)"/>
<path d="M0,0 L2,0 L2,2 L-6,7 L-12,7 L-8,4 L-3,2 Z " fill="#8BE8FB" transform="translate(266,233)"/>
<path d="M0,0 L9,2 L10,8 L6,6 L0,1 Z " fill="#A8A8A8" transform="translate(93,212)"/>
<path d="M0,0 L6,1 L9,5 L8,7 L3,4 L-2,4 Z " fill="#F6F6F6" transform="translate(258,206)"/>
<path d="M0,0 L3,3 L5,6 L7,5 L5,10 L2,13 L2,7 L0,3 Z " fill="#66A9C0" transform="translate(275,180)"/>
<path d="M0,0 L2,4 L2,7 L0,8 L-1,12 L0,14 L-4,12 L-3,8 L-1,6 Z " fill="#8F8F8F" transform="translate(20,139)"/>
<path d="M0,0 L4,1 L6,3 L-1,4 L-8,10 L-6,6 Z " fill="#747474" transform="translate(33,125)"/>
<path d="M0,0 L2,1 L2,4 L0,4 L0,9 L-2,10 L-5,4 Z " fill="#EEEEEE" transform="translate(217,120)"/>
<path d="M0,0 L2,1 L-3,6 L-5,6 L-5,4 L-11,5 L-8,3 Z M-6,6 Z " fill="#ABABAB" transform="translate(406,98)"/>
<path d="M0,0 L6,0 L12,5 L10,7 L6,3 L2,2 L1,5 L-1,1 Z " fill="#666666" transform="translate(174,320)"/>
<path d="M0,0 L17,1 L17,2 L6,3 L0,1 Z " fill="#80E4F8" transform="translate(292,284)"/>
<path d="M0,0 L2,3 L-2,5 L-3,8 L-7,7 L-7,5 L-2,1 L-1,2 Z " fill="#E3F3F6" transform="translate(225,264)"/>
<path d="M0,0 L10,4 L15,8 L9,8 L6,5 L0,2 Z " fill="#629DB1" transform="translate(220,185)"/>
<path d="M0,0 L3,1 L3,3 L5,4 L5,7 L0,7 L-2,2 L0,1 Z " fill="#D9F2FA" transform="translate(78,153)"/>
<path d="M0,0 L1,2 L7,3 L6,5 L1,6 L-1,8 L-3,2 L-1,2 Z " fill="#E9F5F9" transform="translate(201,137)"/>
<path d="M0,0 L2,1 L-1,5 L-4,8 L-6,7 L-5,10 L-7,11 L-8,7 Z " fill="#EEEEEE" transform="translate(204,128)"/>
<path d="M0,0 L4,5 L3,6 L8,8 L5,9 L-1,7 L-2,4 Z " fill="#BDBDBD" transform="translate(246,467)"/>
<path d="M0,0 L1,0 L0,11 L-1,17 L-2,17 L-3,8 L-1,8 L-2,2 Z " fill="#909090" transform="translate(282,416)"/>
<path d="M0,0 L10,0 L15,3 L18,5 L11,4 L0,1 Z " fill="#818181" transform="translate(177,391)"/>
<path d="M0,0 L6,1 L7,10 L2,5 Z " fill="#84979E" transform="translate(225,294)"/>
<path d="M0,0 L2,0 L3,4 L10,5 L13,8 L7,6 L2,6 L1,3 L-1,3 Z " fill="#B2B2B2" transform="translate(238,281)"/>
<path d="M0,0 L4,5 L8,12 L5,13 L-1,1 Z " fill="#8EE8FA" transform="translate(242,260)"/>
<path d="M0,0 L2,1 L-8,8 L-10,7 L-9,6 L-11,4 L-1,1 Z " fill="#77A1AD" transform="translate(290,251)"/>
<path d="M0,0 L1,3 L-2,9 L-5,8 L-4,4 Z " fill="#EFEFEF" transform="translate(184,250)"/>
<path d="M0,0 L1,2 L-1,8 L1,9 L0,13 L-2,13 L-3,3 Z " fill="#B0B0B0" transform="translate(296,227)"/>
<path d="M0,0 L3,1 L-8,8 L-8,4 L-6,4 L-6,2 Z " fill="#DCEEF4" transform="translate(193,219)"/>
<path d="M0,0 L5,5 L6,7 L6,13 L3,10 Z " fill="#ACE8FC" transform="translate(267,196)"/>
<path d="M0,0 L3,2 L3,4 L-5,8 L-3,2 L0,2 Z " fill="#EBF2F4" transform="translate(247,187)"/>
<path d="M0,0 L3,1 L3,3 L1,3 L-1,9 L-4,13 L-5,7 L-2,6 Z " fill="#7D7D7D" transform="translate(323,156)"/>
<path d="M0,0 L4,2 L-2,7 L-4,6 L-4,4 L-2,3 L-2,1 Z " fill="#B7B7B7" transform="translate(337,367)"/>
<path d="M0,0 L5,5 L7,8 L6,12 L2,10 L3,6 L0,2 Z " fill="#999999" transform="translate(251,331)"/>
<path d="M0,0 L10,1 L6,3 L-3,6 Z " fill="#EFEFEF" transform="translate(191,332)"/>
<path d="M0,0 L5,1 L5,3 L3,3 L4,7 L0,7 Z " fill="#F1F1F1" transform="translate(166,329)"/>
<path d="M0,0 L7,2 L8,8 L0,2 Z " fill="#ECECEC" transform="translate(179,318)"/>
<path d="M0,0 L2,1 L-3,11 L-5,11 L-6,8 L-4,8 L-2,3 Z " fill="#EDEDED" transform="translate(300,314)"/>
<path d="M0,0 L2,3 L0,8 L-3,7 L-4,3 Z " fill="#F1F1F1" transform="translate(245,277)"/>
<path d="M0,0 L5,5 L9,11 L5,9 L0,4 Z " fill="#93E0FA" transform="translate(259,274)"/>
<path d="M0,0 L8,0 L8,2 L10,3 L6,4 L1,3 Z " fill="#F2F2F2" transform="translate(331,252)"/>
<path d="M0,0 L2,0 L1,4 L-4,5 L-7,5 L-8,7 L-10,5 Z " fill="#959595" transform="translate(89,237)"/>
<path d="M0,0 L5,0 L5,2 L3,2 L2,4 L-13,3 L-13,2 L0,1 Z " fill="#E7E8E8" transform="translate(331,212)"/>
<path d="M0,0 L6,0 L6,5 L2,6 Z " fill="#B8E7F6" transform="translate(213,171)"/>
<path d="M0,0 L3,0 L3,2 L-2,3 L-4,9 L-5,11 L-7,11 L-5,5 Z " fill="#323232" transform="translate(183,150)"/>
<path d="M0,0 L4,2 L-6,8 L-5,4 L-3,4 L-2,1 Z " fill="#F3F3F3" transform="translate(225,109)"/>
<path d="M0,0 L3,0 L5,8 L3,8 L3,5 L-1,3 L-5,2 Z " fill="#878787" transform="translate(426,90)"/>
<path d="M0,0 L1,0 L1,12 L-2,11 L-4,5 L-1,5 Z " fill="#EAEAEA" transform="translate(353,292)"/>
<path d="M0,0 L2,1 L2,3 L0,3 L-3,6 L-7,7 L-7,4 Z M-4,4 Z " fill="#547C84" transform="translate(250,271)"/>
<path d="M0,0 L4,0 L2,4 L-2,7 L-2,3 Z " fill="#8EDDF7" transform="translate(179,248)"/>
<path d="M0,0 L9,2 L11,5 L3,4 L2,6 Z " fill="#76E2F8" transform="translate(235,225)"/>
<path d="M0,0 L3,3 L5,11 L-2,8 L2,6 Z " fill="#73B0BC" transform="translate(228,216)"/>
<path d="M0,0 L2,1 L4,7 L3,11 L-1,4 Z " fill="#828889" transform="translate(224,205)"/>
<path d="M0,0 L5,1 L8,4 L5,5 L3,4 L1,7 L-1,5 Z " fill="#F5F5F5" transform="translate(181,122)"/>
<path d="M0,0 L2,1 L2,4 L-5,8 L-3,2 Z " fill="#96EAFB" transform="translate(225,243)"/>
<path d="M0,0 L1,2 L0,5 L2,5 L3,11 L1,11 L1,6 L-3,6 L-3,3 L-1,3 Z " fill="#4AC8ED" transform="translate(249,224)"/>
<path d="M0,0 L4,4 L7,9 L7,12 L5,12 L0,3 Z " fill="#4C4C4C" transform="translate(337,222)"/>
<path d="M0,0 L4,5 L4,8 L0,7 L-2,3 L0,3 Z M2,8 Z " fill="#F3F3F3" transform="translate(335,222)"/>
<path d="M0,0 L6,2 L9,2 L10,4 L12,5 L8,6 L3,4 Z " fill="#B9B9B9" transform="translate(103,220)"/>
<path d="M0,0 L8,5 L8,8 L2,4 L-1,4 L-2,2 L0,2 Z " fill="#7CE5FA" transform="translate(236,214)"/>
<path d="M0,0 L6,1 L6,2 L-2,4 L-7,4 L-6,2 Z " fill="#B1F0FC" transform="translate(162,215)"/>
<path d="M0,0 L5,2 L10,5 L8,6 L0,4 Z " fill="#8C8C8C" transform="translate(110,171)"/>
<path d="M0,0 L2,1 L-7,7 L-12,7 L-8,4 Z " fill="#C3EEFD" transform="translate(419,119)"/>
<path d="M0,0 L4,2 L-3,7 L-5,6 L-3,2 Z " fill="#A3A3A3" transform="translate(208,390)"/>
<path d="M0,0 L7,0 L5,2 L-3,5 L-6,4 L-2,3 L-2,1 Z " fill="#898989" transform="translate(68,378)"/>
<path d="M0,0 L7,1 L9,6 L4,4 Z " fill="#A2A2A2" transform="translate(307,365)"/>
<path d="M0,0 L4,2 L-1,6 L-4,8 L-3,4 L-1,1 Z " fill="#EDEDED" transform="translate(257,355)"/>
<path d="M0,0 L3,4 L0,7 L-2,10 L-2,3 Z " fill="#F1F1F1" transform="translate(167,340)"/>
<path d="M0,0 L1,2 L0,6 L-4,10 L-10,10 L-10,9 L-5,9 L-3,4 Z " fill="#808080" transform="translate(217,323)"/>
<path d="M0,0 L1,0 L1,7 L-2,10 L-2,2 Z " fill="#64DFF7" transform="translate(204,268)"/>
<path d="M0,0 L2,0 L2,5 L-1,6 L-2,8 L-4,8 L-2,3 Z " fill="#DDF6FB" transform="translate(234,249)"/>
<path d="M0,0 L3,2 L3,4 L8,3 L7,5 L1,6 L1,4 L-1,4 Z " fill="#CACACA" transform="translate(366,244)"/>
<path d="M0,0 L4,1 L-4,7 L-6,7 L-4,3 Z " fill="#A0E4FB" transform="translate(209,238)"/>
<path d="M0,0 L3,0 L2,3 L-4,8 L-5,6 Z " fill="#47DCF9" transform="translate(60,204)"/>
<path d="M0,0 L12,0 L12,1 L7,2 L7,3 L-2,2 Z " fill="#D1D1D1" transform="translate(178,199)"/>
<path d="M0,0 L4,1 L7,1 L9,1 L9,3 L7,3 L7,5 L3,4 Z " fill="#B1B1B1" transform="translate(62,187)"/>
<path d="M0,0 L6,0 L6,6 L3,7 Z " fill="#F2F2F2" transform="translate(204,153)"/>
<path d="M0,0 L10,0 L10,1 L1,1 L-1,6 L-3,7 L-3,2 L0,2 Z " fill="#8D8D8D" transform="translate(265,145)"/>
<path d="M0,0 L3,1 L8,8 L7,10 L2,5 L0,4 Z " fill="#8B8B8B" transform="translate(212,127)"/>
<path d="M0,0 L1,2 L-1,5 L-3,6 L-3,4 L-8,5 L-4,1 Z " fill="#B8B8B8" transform="translate(274,82)"/>
<path d="M0,0 L2,0 L3,3 L5,3 L5,8 L4,6 L1,6 L-1,1 Z " fill="#FDFDFD" transform="translate(286,353)"/>
<path d="M0,0 L2,0 L2,2 L-8,5 L-9,3 Z " fill="#4F4F4F" transform="translate(292,326)"/>
<path d="M0,0 L7,1 L5,5 L-2,2 Z " fill="#EDEDED" transform="translate(137,310)"/>
<path d="M0,0 L5,5 L7,10 L2,8 Z " fill="#898B8B" transform="translate(232,304)"/>
<path d="M0,0 L4,2 L7,4 L6,6 L-2,3 Z M3,3 Z " fill="#C9C9C9" transform="translate(126,304)"/>
<path d="M0,0 L3,1 L2,3 L3,6 L-2,4 L-5,1 Z " fill="#A6A6A6" transform="translate(363,300)"/>
<path d="M0,0 L3,2 L4,11 L2,10 L1,4 L-2,3 Z " fill="#B2B2B2" transform="translate(339,229)"/>
<path d="M0,0 L3,1 L4,6 L-3,3 L-4,1 L0,2 Z " fill="#85E6F9" transform="translate(231,226)"/>
<path d="M0,0 L5,0 L6,1 L6,6 L3,5 Z " fill="#9BDEF4" transform="translate(230,193)"/>
<path d="M0,0 L2,0 L2,2 L4,2 L4,5 L-1,6 L-2,1 Z " fill="#A7A7A7" transform="translate(28,157)"/>
<path d="M0,0 L3,0 L4,5 L2,6 L2,4 L-3,4 Z " fill="#C9C9C9" transform="translate(135,111)"/>
<path d="M0,0 L2,1 L-2,2 L-4,6 L-4,4 L-11,5 L-8,3 Z " fill="#959595" transform="translate(388,105)"/>
<path d="M0,0 L6,0 L1,4 L-3,6 Z " fill="#989898" transform="translate(221,381)"/>
<path d="M0,0 L2,1 L1,5 L-2,8 L-4,8 L-2,3 Z M-2,5 Z " fill="#54808F" transform="translate(268,283)"/>
<path d="M0,0 L8,0 L8,4 L2,4 L4,2 L0,2 Z " fill="#EAEAEA" transform="translate(307,250)"/>
<path d="M0,0 L5,2 L6,6 L2,5 L0,3 Z " fill="#52A1F8" transform="translate(242,243)"/>
<path d="M0,0 L5,1 L6,3 L-9,2 L-9,1 Z " fill="#C8F3FC" transform="translate(229,230)"/>
<path d="M0,0 L6,2 L7,6 L2,4 L0,2 Z " fill="#5D7B81" transform="translate(264,212)"/>
<path d="M0,0 L2,3 L-3,8 L-5,12 L-5,7 Z " fill="#E0E6E9" transform="translate(281,187)"/>
<path d="M0,0 L5,1 L11,4 L10,8 L8,4 L2,2 Z " fill="#6F6F6F" transform="translate(385,187)"/>
<path d="M0,0 L2,0 L6,4 L10,8 L4,6 L1,3 Z " fill="#B6E3F2" transform="translate(217,180)"/>
<path d="M0,0 L1,3 L-3,13 L-5,10 Z " fill="#D2F6FD" transform="translate(341,169)"/>
<path d="M0,0 L6,1 L8,6 L9,8 L5,6 Z " fill="#B8B8B8" transform="translate(33,163)"/>
<path d="M0,0 L9,3 L10,6 L1,3 Z " fill="#5292A7" transform="translate(87,157)"/>
<path d="M0,0 L5,2 L8,5 L1,6 Z " fill="#A4A4A4" transform="translate(51,135)"/>
<path d="M0,0 L3,1 L-1,2 L-2,5 L-10,5 L-8,3 Z " fill="#7D7D7D" transform="translate(361,115)"/>
<path d="M0,0 L9,5 L10,7 L4,7 L2,3 L0,2 Z " fill="#919191" transform="translate(155,102)"/>
<path d="M0,0 L5,0 L5,4 L-1,3 Z " fill="#FCFDFD" transform="translate(310,91)"/>
<path d="M0,0 L2,1 L2,3 L7,3 L4,5 L-1,6 L-1,1 Z " fill="#B2B2B2" transform="translate(133,350)"/>
<path d="M0,0 L1,4 L-3,6 L-7,4 Z " fill="#F4F4F4" transform="translate(278,348)"/>
<path d="M0,0 L4,5 L1,7 L1,5 L-1,5 L-2,8 L-1,3 Z " fill="#F5F5F5" transform="translate(247,327)"/>
<path d="M0,0 L3,1 L-5,6 L-7,6 L-7,4 Z " fill="#99E2FB" transform="translate(100,329)"/>
<path d="M0,0 L5,5 L4,8 L-1,3 Z " fill="#F6F6F6" transform="translate(236,312)"/>
<path d="M0,0 L3,0 L2,5 L-1,5 L-2,2 Z " fill="#F1F1F1" transform="translate(185,301)"/>
<path d="M0,0 L4,4 L4,6 L-5,3 L-1,2 Z " fill="#A7AAAB" transform="translate(91,286)"/>
<path d="M0,0 L4,1 L-1,5 L2,6 L-1,7 L-3,3 Z " fill="#F2F3F4" transform="translate(273,282)"/>
<path d="M0,0 L2,1 L4,5 L5,10 L0,5 L-1,2 Z " fill="#87E7FA" transform="translate(253,254)"/>
<path d="M0,0 L2,1 L-4,6 L-6,1 Z " fill="#82E6FA" transform="translate(272,222)"/>
<path d="M0,0 L1,0 L1,7 L-3,10 L-1,2 Z " fill="#F3F3F3" transform="translate(297,217)"/>
<path d="M0,0 L2,3 L4,9 L0,8 L-1,2 Z " fill="#F0F0F0" transform="translate(222,206)"/>
<path d="M0,0 L1,3 L-2,8 L-4,8 L-2,1 Z " fill="#69E2FA" transform="translate(325,200)"/>
<path d="M0,0 L3,4 L4,7 L-1,8 Z " fill="#EAEBEC" transform="translate(213,176)"/>
<path d="M0,0 L1,0 L1,8 L0,14 L-1,14 L-3,5 L-1,5 Z " fill="#737373" transform="translate(123,172)"/>
<path d="M0,0 L5,2 L7,4 L1,5 Z " fill="#ACACAC" transform="translate(69,146)"/>
<path d="M0,0 L2,1 L2,4 L2,6 L-3,7 L-2,2 Z " fill="#CBCBCB" transform="translate(264,87)"/>
<path d="M0,0 L8,1 L12,3 L3,3 L1,4 Z " fill="#959595" transform="translate(290,84)"/>
<path d="M0,0 L2,2 L-5,7 L-7,7 L-7,5 Z " fill="#484848" transform="translate(266,353)"/>
<path d="M0,0 L0,3 L-1,5 L-9,4 L-6,2 Z " fill="#E6E6E6" transform="translate(289,329)"/>
<path d="M0,0 L8,5 L7,7 L-2,2 Z " fill="#A5E6FB" transform="translate(408,319)"/>
<path d="M0,0 L4,4 L4,6 L-2,4 L-4,2 Z " fill="#A0A0A0" transform="translate(119,300)"/>
<path d="M0,0 L3,3 L4,9 L0,5 Z " fill="#E6F2F6" transform="translate(231,297)"/>
<path d="M0,0 L3,0 L2,4 L-5,2 L-5,1 Z " fill="#D6D7D7" transform="translate(88,285)"/>
<path d="M0,0 L2,3 L-3,6 L-5,5 L-5,3 Z " fill="#577984" transform="translate(233,281)"/>
<path d="M0,0 L2,0 L3,5 L-1,6 L-1,1 Z " fill="#ECF6F8" transform="translate(244,269)"/>
<path d="M0,0 L2,0 L3,4 L1,5 L1,8 L-2,7 Z " fill="#F2F2F2" transform="translate(183,257)"/>
<path d="M0,0 L5,2 L8,5 L3,6 L0,2 Z " fill="#D8F7FD" transform="translate(254,255)"/>
<path d="M0,0 L1,4 L-4,7 L-6,6 Z " fill="#F5F5F5" transform="translate(303,220)"/>
<path d="M0,0 L5,5 L6,7 L3,8 L0,3 Z " fill="#E9F3F4" transform="translate(249,181)"/>
<path d="M0,0 L7,6 L6,8 L3,8 L0,3 Z " fill="#C5D0D2" transform="translate(241,169)"/>
<path d="M0,0 L2,2 L1,7 L-3,7 Z M-1,4 Z " fill="#5E5E5E" transform="translate(175,161)"/>
<path d="M0,0 L6,4 L6,7 L5,5 L1,4 L-1,1 Z " fill="#262626" transform="translate(31,162)"/>
<path d="M0,0 L6,0 L6,3 L1,6 L0,4 L2,4 Z M3,2 Z " fill="#616161" transform="translate(195,129)"/>
<path d="M0,0 L2,3 L3,11 L1,11 L0,4 Z " fill="#848484" transform="translate(437,109)"/>
<path d="M0,0 L5,1 L5,3 L-5,2 L-5,1 Z " fill="#8B8B8B" transform="translate(260,475)"/>
<path d="M0,0 L5,2 L2,6 L0,4 Z " fill="#F4F4F4" transform="translate(282,350)"/>
<path d="M0,0 L5,3 L6,6 L1,4 L-2,1 Z " fill="#8E8E8E" transform="translate(418,335)"/>
<path d="M0,0 L2,1 L0,5 L-5,6 L-5,4 L-2,4 L-2,1 Z " fill="#CCCCCC" transform="translate(104,322)"/>
<path d="M0,0 L2,4 L3,6 L-2,4 L-5,1 Z " fill="#989898" transform="translate(388,315)"/>
<path d="M0,0 L5,2 L8,6 L3,5 L1,3 Z " fill="#75E5FA" transform="translate(256,253)"/>
<path d="M0,0 L3,1 L5,0 L8,2 L1,5 Z " fill="#EEEEEE" transform="translate(352,252)"/>
<path d="M0,0 L6,3 L4,5 L0,5 Z " fill="#D4EDF5" transform="translate(279,223)"/>
<path d="M0,0 L3,1 L2,5 L-1,5 L-1,3 L-3,2 Z " fill="#E2E3E3" transform="translate(231,197)"/>
<path d="M0,0 L6,2 L8,4 L3,5 L2,3 L-1,3 Z " fill="#A6A6A6" transform="translate(367,178)"/>
<path d="M0,0 L3,2 L3,4 L5,4 L4,8 L2,6 L0,4 Z " fill="#BFEDFC" transform="translate(273,175)"/>
<path d="M0,0 L3,3 L3,7 L-1,5 Z " fill="#E2F5F9" transform="translate(227,149)"/>
<path d="M0,0 L6,2 L7,4 L4,4 L4,6 L2,5 Z " fill="#9B9B9B" transform="translate(44,131)"/>
<path d="M0,0 L5,0 L4,3 L0,5 Z " fill="#F3F3F3" transform="translate(245,363)"/>
<path d="M0,0 L2,1 L2,5 L-3,3 L-4,1 Z " fill="#A9A9A9" transform="translate(302,358)"/>
<path d="M0,0 L8,1 L8,5 L3,3 Z " fill="#7E7E7E" transform="translate(432,346)"/>
<path d="M0,0 L2,0 L3,6 L-3,3 Z " fill="#EAEAEA" transform="translate(283,344)"/>
<path d="M0,0 L4,1 L2,5 L-1,4 Z " fill="#F1F1F1" transform="translate(181,306)"/>
<path d="M0,0 L2,0 L0,5 L-3,8 L-3,2 L-1,2 Z " fill="#E8F1F3" transform="translate(193,292)"/>
<path d="M0,0 L4,2 L5,5 L3,7 L1,3 L-1,1 Z " fill="#CCEDF9" transform="translate(269,287)"/>
<path d="M0,0 L5,5 L2,7 L0,4 Z " fill="#6DE1F8" transform="translate(251,260)"/>
<path d="M0,0 L6,3 L5,6 L-2,2 Z " fill="#9EEAF8" transform="translate(267,260)"/>
<path d="M0,0 L2,2 L-1,9 L-3,5 Z " fill="#E4F3F9" transform="translate(175,250)"/>
<path d="M0,0 L0,3 L-3,6 L-5,6 L-4,2 Z " fill="#69E2F9" transform="translate(231,240)"/>
<path d="M0,0 L1,0 L1,10 L-1,10 L-2,5 L0,5 Z " fill="#48BEF9" transform="translate(239,239)"/>
<path d="M0,0 L3,4 L4,8 L0,8 Z " fill="#A5A5A5" transform="translate(180,236)"/>
<path d="M0,0 L2,1 L-4,6 L-6,6 L-6,4 Z " fill="#B6EAFC" transform="translate(285,235)"/>
<path d="M0,0 L3,1 L0,4 L-6,4 L-4,2 Z " fill="#D1F0FA" transform="translate(274,236)"/>
<path d="M0,0 L6,0 L3,4 L1,2 L-3,4 Z " fill="#EFF6F8" transform="translate(307,216)"/>
<path d="M0,0 L1,3 L-2,9 L-4,8 L-2,3 Z " fill="#95EAFB" transform="translate(336,180)"/>
<path d="M0,0 L5,4 L5,6 L2,7 L-1,3 Z " fill="#F0F0F0" transform="translate(242,164)"/>
<path d="M0,0 L6,4 L3,5 L-1,4 Z " fill="#F1F1F1" transform="translate(287,149)"/>
<path d="M0,0 L1,0 L3,12 L0,11 Z " fill="#ECECEC" transform="translate(313,139)"/>
<path d="M0,0 L5,2 L3,6 L1,5 Z M0,5 Z " fill="#B8B8B8" transform="translate(150,99)"/>
<path d="M0,0 L1,2 L-2,7 L-3,5 Z " fill="#47DCF9" transform="translate(51,212)"/>
<path d="M0,0 L3,1 L3,4 L0,3 Z " fill="#47DCF9" transform="translate(42,219)"/>
<path d="M0,0 L2,1 L-1,4 L-4,2 L-2,1 L0,2 Z " fill="#494949" transform="translate(43,176)"/>
<path d="M0,0 L3,1 L2,3 L0,3 Z " fill="#3A3A3A" transform="translate(24,169)"/>
<path d="M0,0 L2,3 L-1,2 Z " fill="#5A5A5A" transform="translate(38,170)"/>
<path d="M0,0 L2,1 L1,3 L-1,2 Z " fill="#4B4B4B" transform="translate(28,164)"/>
<path d="M0,0 L3,1 L0,1 Z " fill="#444444" transform="translate(46,183)"/>
<path d="M0,0 L2,0 L1,2 Z " fill="#515151" transform="translate(52,185)"/>
<path d="M0,0 Z " fill="#7F7F7F" transform="translate(50,183)"/>
<path d="M0,0 L2,1 Z " fill="#313131" transform="translate(44,184)"/>
<path d="M0,0 L2,1 Z " fill="#393939" transform="translate(24,165)"/>
<path d="M0,0 Z " fill="#373737" transform="translate(22,164)"/>
<path d="M0,0 Z " fill="#47DCF9" transform="translate(52,211)"/>
<path d="M0,0 Z " fill="#47DCF9" transform="translate(53,210)"/>
<path d="M0,0 Z " fill="#656565" transform="translate(74,205)"/>
<path d="M0,0 Z " fill="#47DCF9" transform="translate(63,203)"/>
<path d="M0,0 Z " fill="#000000" transform="translate(75,202)"/>
<path d="M0,0 Z " fill="#0E0E0E" transform="translate(76,201)"/>
<path d="M0,0 Z " fill="#646464" transform="translate(70,200)"/>
<path d="M0,0 Z " fill="#5C5C5C" transform="translate(74,199)"/>
<path d="M0,0 Z " fill="#666666" transform="translate(70,198)"/>
<path d="M0,0 Z " fill="#383838" transform="translate(66,194)"/>
<path d="M0,0 Z " fill="#646464" transform="translate(60,190)"/>
<path d="M0,0 Z " fill="#2B2B2B" transform="translate(57,188)"/>
<path d="M0,0 Z " fill="#2E2E2E" transform="translate(52,188)"/>
<path d="M0,0 Z " fill="#080808" transform="translate(46,181)"/>
<path d="M0,0 Z " fill="#383838" transform="translate(43,181)"/>
<path d="M0,0 Z " fill="#363636" transform="translate(37,179)"/>
<path d="M0,0 Z " fill="#181818" transform="translate(43,174)"/>
<path d="M0,0 Z " fill="#373737" transform="translate(22,170)"/>
<path d="M0,0 Z " fill="#5F5F5F" transform="translate(29,169)"/>
<path d="M0,0 Z " fill="#424242" transform="translate(30,165)"/>
<path d="M0,0 Z " fill="#323232" transform="translate(26,164)"/>
</svg>
